<svg xmlns="http://www.w3.org/2000/svg" xmlns:xlink="http://www.w3.org/1999/xlink" fill="none" viewBox="0 0 682 614"><g clip-path="url(#a)"><g fill-rule="evenodd"><path d="M552.013 275.985c0 152.404-123.596 275.946-276.019 275.946a274.695 274.695 0 0 1-117.31-26.134 274.877 274.877 0 0 1-20.588-10.768 275.89 275.89 0 0 1-70.847-58.621 272.626 272.626 0 0 1-20.43-26.674 272.822 272.822 0 0 1-22.33-40.065A274.718 274.718 0 0 1 .04 275.985a274.967 274.967 0 0 1 24.53-113.881 267.632 267.632 0 0 1 17.253-32.144 274.891 274.891 0 0 1 50.509-59.886A274.735 274.735 0 0 1 275.994.04a276.302 276.302 0 0 1 65.482 7.828 274.182 274.182 0 0 1 81.339 34.437c4.824 3.044 9.543 6.208 14.13 9.542a255.302 255.302 0 0 1 11.322 8.606 274.874 274.874 0 0 1 48.282 49.58 273.937 273.937 0 0 1 53.75 135.363 268.376 268.376 0 0 1 1.714 30.59Z" fill="url(#b)" style="mix-blend-mode:screen"/><path d="M532.044 275.985c0 141.387-114.673 255.993-256.051 255.993a254.646 254.646 0 0 1-108.86-24.263c-6.511-3.044-12.878-6.392-19.1-9.977A256.52 256.52 0 0 1 82.3 443.361a251.766 251.766 0 0 1-18.94-24.75 254.663 254.663 0 0 1-20.745-37.166 254.83 254.83 0 0 1-22.671-105.433 254.98 254.98 0 0 1 22.75-105.645 247.249 247.249 0 0 1 16.015-29.824 254.914 254.914 0 0 1 46.87-55.55A254.905 254.905 0 0 1 275.946 20.02a256.243 256.243 0 0 1 60.75 7.275 254.039 254.039 0 0 1 75.447 31.933 250.006 250.006 0 0 1 13.102 8.857c3.585 2.556 7.09 5.271 10.545 7.986a255.692 255.692 0 0 1 44.748 46.061 253.91 253.91 0 0 1 49.87 125.558 251.662 251.662 0 0 1 1.634 28.295Z" fill="url(#c)"/></g><path d="M530.463 247.624a36.524 36.524 0 0 0-2.294 5.126 42.197 42.197 0 0 1-3.611 7.341 91.228 91.228 0 0 0-3.955 9.344c-2.979 6.893-5.167 14.379-7.645 21.469-2.754 7.908-5.351 15.815-8.738 23.459-1.516 3.466-3.731 6.59-5.273 9.977s-3.058 6.708-4.943 9.989c-4.666 8.013-8.884 16.185-13.826 24.066-8.884 14.194-19.574 26.806-29.934 39.919-5.272 6.59-11.415 12.349-17.412 18.306-6.775 6.695-12.733 14.194-19.771 20.744a134.947 134.947 0 0 1-17.293 14.497c-3.533 2.333-6.933 4.929-10.466 7.223-4.521 2.939-9.833 4.599-14.657 6.97-16.041 7.724-33.216 12.548-50.087 17.965-16.53 5.27-32.465 12.507-49.336 16.724-3.467.87-6.973 1.213-10.48 1.924-3.795.75-7.446 1.845-11.334 2.254-7.751.87-15.25 3.466-23.08 3.954-5.47.263-10.545-.791-15.896-1.055a169.891 169.891 0 0 0-20.536.896 111.07 111.07 0 0 1-22.71-.87c-6.512-3.044-12.878-6.391-19.1-9.976l.712.224c4.456 1.437 8.594 3.954 13.076 5.048 4.784 1.094 9.754 1.884 14.696 2.715a58.782 58.782 0 0 0 19.574.118c3.467-.566 6.973-.988 10.439-1.7 3.77-.791 7.566.185 11.336-.672 5.272-1.318 11.045-.264 16.383-.461 9.227-.303 18.23-3.69 27.127-5.496 9.872-1.99 19.244-5.575 29.3-6.774 5.734-.685 10.242-2.636 15.673-4.336 4.666-1.437 7.645-4.033 11.52-6.972 7.46-5.575 14.999-11.294 23.725-14.906a139.858 139.858 0 0 1 27.008-7.907 47.972 47.972 0 0 0 21.616-10.28c2.58-2.306 5.01-4.718 7.54-7.051a111.358 111.358 0 0 0 9.23-8.58c3.17-3.624 6.78-6.932 9.9-10.543 3.47-4.02 6.3-8.54 9.73-12.573 5.459-6.444 13.79-9.792 19.167-16.342 1.135-1.318 1.886-3.018 3.059-4.336s2.518-2.069 3.269-3.835c.91-2.148 3.137-7.117 1.925-9.528-2.412-4.864-15.185 7.643-17.215 9.594-3.163 2.978-5.76 6.036-9.57 8.211a55.591 55.591 0 0 1-6.998 3.729c-4.074 1.661-8.78 1.845-13.076 2.755-11.942 2.557-24.108 3.954-36.155 5.838-16.318 2.517-32.807 5.944-48.862 9.858l-44.932 11.453-23.99 5.693c-9.792 2.188-19.401 5.193-29.234 7.078-16.2 2.938-32.491 6.523-49.007 6.97l-38.764 1.016c-17.464 0-36.194 1.766-53.33-2.333a4.528 4.528 0 0 1-.645-.184 251.766 251.766 0 0 1-18.94-24.751 87.781 87.781 0 0 0 19.586 6.142c4.903.87 10.097 1.99 14.156 4.929a29.476 29.476 0 0 0 8.475 4.784c11.15 3.585 21.089 3.36 32.253.079a473.47 473.47 0 0 0 12.43-3.875c3.044-1.028 5.839-2.833 8.883-3.663 8.634-2.254 17.557-3.875 26.257-5.865 4.138-.94 8.475-1.74 12.548-2.97 4.587-1.435 8.884-3.77 13.286-5.573 8.436-3.467 16.278-7.038 25.32-8.593 5.68-.936 12.272-1.648 17.478-4.284 1.687-.83 4.218-2.003 3.954-4.256-.303-2.794-3.954-2.043-5.957-1.701-5.84 1.016-11.784 1.543-17.584 3.085a156.153 156.153 0 0 1-31.304 4.824c-15.896 1.053-32.095 2.002-48.03 1.172-12.655-.646-25.387-1.78-38.04-1.661-12.248.119-24.15-.935-35.79-4.784-13.14-4.322-26.52-8.276-38.67-14.945A254.83 254.83 0 0 1 19.95 276.02 254.98 254.98 0 0 1 42.7 170.372c-1.7 4.678-3.125 9.462-5.09 13.969a69.62 69.62 0 0 0-6.207 27.676 79.594 79.594 0 0 1-.08 11.216c-.647 4.744-1.016 7.802.34 12.586 1.016 3.501 1.32 6.89 2.86 10.275a9.401 9.401 0 0 0 2.03 2.82 25.16 25.16 0 0 1 2.005 3.36c2.07 3.387 5.048 7.907 8.62 9.858a40.772 40.772 0 0 0 7.46 2.833c3.006.854 4.18 1.197 7.197.103a30.194 30.194 0 0 1 7.606-1.95c1.435.158 2.85.471 4.218.935 1.805.303 3.585.145 5.43.527 7.526 1.583 14.868 3.428 22.592 3.35 6.063-.067 12.02.95 18.163.95 7.38 0 14.684.222 21.986-.714 4.943-.646 10.254-1.885 15.184-2.188s10.215.145 15.25.08c17.518-.277 35.59-4.495 50.812-13.338a110.088 110.088 0 0 1 25.888-11.07c11.678-3.36 23.606-6.669 35.588-8.936a140.405 140.405 0 0 0 32.225-10.398 87.384 87.384 0 0 0 12.996-7.578c3.77-2.557 7.91-4.508 11.52-7.183 10.548-7.802 19.774-16.95 29-26.253 5.27-5.272 10.624-10.543 16.133-15.59 4.548-4.152 9.372-5.998 15.21-7.42 9.307-2.228 14.5-12.692 19.509-20.19 6.327-9.45 11.573-20.297 11.863-31.935a66.616 66.616 0 0 0-1.095-14.31 23.98 23.98 0 0 0-1.766-6.14 21.729 21.729 0 0 1-1.845-3.77c-.264-1.12-.303-2.293-.527-3.308s-.752-2.043-.976-2.86c-.527-2.188-1.621-5.206-1.476-7.617v-.145c3.585 2.556 7.09 5.27 10.545 7.986a16.486 16.486 0 0 1-.08 3.005c-.223 1.213-.645 2.227-.87 3.427-.302 1.777-.975 2.792-.935 4.742a24.74 24.74 0 0 0 .448 5.812c1.239 4.745 4.337 9.147 4.297 14.155a39.316 39.316 0 0 1-3.322 14.747c-1.805 4.52-3.756 8.698-5.944 13.034a50.096 50.096 0 0 1-5.01 8.132 58.835 58.835 0 0 0-5.271 7.38 67.924 67.924 0 0 0-3.058 6.405c-1.661 3.954-4.337 6.023-7.342 8.962-6.182 5.958-13.906 10.78-20.536 16.5a97.43 97.43 0 0 0-14.723 15.21c-1.884 2.636-11.52 10.135-8.923 14.09 1.16 1.74 4.824 1.172 6.472 1.172a26.948 26.948 0 0 0 10.97-2.45c9.373-4.258 18.718-9.306 28.59-12.245 4.442-1.318 9.227-2.03 13.405-3.954 5.07-2.36 9.98-5.05 14.698-8.052 3.73-2.307 5.945-5.272 8.739-8.593 1.582-1.885 3.796-2.94 5.536-4.665 2.03-2.045 3.308-4.417 5.575-6.183a70.584 70.584 0 0 0 14.38-15.512c3.666-5.272 5.01-11.862 6.59-17.858a23.298 23.298 0 0 0 1.056-4.745c.066-2.03 0-4.138 0-6.18v-.33a253.907 253.907 0 0 1 49.864 125.611zM413.773 80.788c-.976 5.8-1.503 11.519-2.636 17.318s-1.424 12.243-3.77 17.594c-3.954 9.225-5.193 19.466-11.441 27.597-2.636 3.466-4.719 7.196-8.106 10.095a28.99 28.99 0 0 1-4.06 2.228c-1.318.87-2.715 2.188-3.954 3.123-6.709 4.903-13.827 9.951-19.77 15.815-6.368 6.26-12.43 12.402-19.957 17.331-2.267 1.463-4.64 2.517-6.973 3.809a49.196 49.196 0 0 1-5.655 3.229 26.204 26.204 0 0 0-6.695 3.163 28.364 28.364 0 0 1-5.919 3.36c-3.61 1.424-7.117 3.124-10.729 4.521-1.66.683-3.4 1.065-5.088 1.658-4.784 1.818-8.29 1.66-14.498 2.147-1.95-.856-.29-.935 1.318-1.647a7.143 7.143 0 0 0 2.557-1.964 33.717 33.717 0 0 1 4.363-3.953c2.715-1.963 6.3-2.938 9.226-4.704 3.73-2.332 7.421-5.166 11.033-7.683 3.057-2.111 5.351-5.431 7.908-8.067 2.715-2.86 5.997-5.416 8.963-8.092 3.467-3.082 6.445-6.59 9.951-9.645a36.805 36.805 0 0 0 8.818-11.071c.976-1.806 2.558-3.124 3.573-4.97a46.443 46.443 0 0 0 2.86-5.191c.87-2.15 2.003-4.152 2.94-6.221 1.053-2.412 1.014-5.272 1.541-7.79a885.084 885.084 0 0 0 4.482-22.72 127.848 127.848 0 0 0 1.436-19.465c.224-6.18 1.964-12.201 1.991-18.45a15.103 15.103 0 0 0-.897-6.745c-1.318-2.941-2.794-5.497-3.848-8.554a49.603 49.603 0 0 0-17.135-23.604c-1.2-.87-5.009-3.162-8.779-5.917a254.047 254.047 0 0 1 75.447 31.93 50.298 50.298 0 0 1 1.503 21.548zm-74.208.409c-.554 3.242-2.518 5.693-3.427 8.777a73.96 73.96 0 0 0-2.333 10.702c-.752 5.495-.264 10.952-.897 16.487a94.87 94.87 0 0 1-9.226 29.983c-4.6 9.37-12.469 17.053-21.09 22.865-8.883 6.063-18.756 10.689-28.47 15.17-5.536 2.53-11.375 3.59-17.03 5.74-4.745 1.77-9.41 3.798-14.13 5.643s-8.963 5.009-13.629 6.525c-2.899.936-5.76 1.91-8.659 2.965-4.983 1.78-9.504 4.415-14.354 6.485a123.326 123.326 0 0 1-21.248 6.97c-7.197 1.687-14.156.593-21.392-.303a174.34 174.34 0 0 1-18.124-2.636c-10.953-2.636-22.75-1.885-33.927-1.885-8.48 0-18.27.83-25.77-3.77-2.15-1.317-4.52-2.714-5.72-4.968-1.48-2.796-1.66-6.328-2.31-9.346-1.32-6.208-7.229-10.438-11.26-14.985-5.275-5.957-7.278-13.482-8.33-21.166a57.3 57.3 0 0 1 .46-19.927A254.934 254.934 0 0 1 105.57 85c-4.284 8.131-7.527 16.763-11.296 25.16-5.68 12.572-10.69 26.278-10.202 40.327.183 5.51.631 11.677 3.571 16.461 2.267 3.693 5.997 6.368 9.608 8.556 5.92 3.544 11.863 7.46 18.23 9.897l21.55 8.145c4.18 1.582 8.211 3.387 12.732 3.954 5.552.444 11.128.492 16.687.145 19.692-.527 37.882-9.753 56.414-15.327 5.957-1.806 12.14-2.636 18.004-4.587a76.914 76.914 0 0 0 10.256-4.678c8.238-4.257 17.24-7.46 24.964-12.77a106.376 106.376 0 0 0 20.72-18.859c4.6-5.509 6.67-11.005 8.924-17.779 4.442-13.339 6.142-26.176 7.34-40.08.529-5.904 2.572-11.176 3.956-16.909.896-3.796.37-8.17-2.637-10.925-6.102-5.378-15.105-8.738-22.908-10.544-4.745-1.133-9.226-2.636-14.156-2.636H262.9c-4.822 0-9.146-1.014-13.785-1.014-5.457 0-10.545 1.541-15.936 1.963a157.46 157.46 0 0 0-16.832 2.11c-6.59 1.16-12.956 3.795-19.362 5.72a110.6 110.6 0 0 0-35.39 17.856c-2.637 2.03-5.497 3.65-8.252 5.457-2.41 1.62-3.28 3.466-4.82 5.878a49.547 49.547 0 0 0-6.775 15.63 45.873 45.873 0 0 0-.87 12.244 96.87 96.87 0 0 1-1.62 16.526c-1.32 7.684-8.7 19.097-.568 25.238a10.548 10.548 0 0 0 7.908 1.845 90.049 90.049 0 0 0 12.272-2.86c11.27-3.162 23.053-6.932 34.73-8.408 3.547-.448 6.895-.184 10.4-1.08 2.19-.604 4.258-1.315 6.473-1.737 5.126-.936 10.253-4.257 14.273-7.604 1.846-1.542 3.362-3.427 5.273-4.97 2.557-2.108 5.64-3.505 8.093-5.77 3.506-3.23 6.854-6.736 10.136-10.202 6.735-7.076 11.6-15.933 17.32-23.722 3.624-4.94 7.644-10.32 8.633-16.46.755-4.743-5.044-7.273-8.59-8.776a23.727 23.727 0 0 0-12.205-1.702c-5.76 1.028-11.032 4.455-16.383 6.748-11.784 5.166-24.938 6.444-35.18 14.72-3.73 2.98-3.544 5.84-4.704 9.99a37.587 37.587 0 0 1-2.9 5.72c-1.542 2.86-1.74 3.574-.95 6.59s1.517 7.04 4.944 8.358c2.965 1.173 7.75.158 10.32-1.463a22.522 22.522 0 0 1 4.706-2.86c1.095-.422 3.77-1.66 4.825-1.318 1.885.71.488 1.87-.303 2.898a14.178 14.178 0 0 0-1.701 2.9 9.022 9.022 0 0 1-1.133 2.94c-3.005 3.426-8.99 5.153-13.181 6.59-3.651 1.317-6.393 2.78-10.386 2.82-5.391 0-3.203-3.954-3.955-7.908-1.054-5.008-6.827-6.88-7.46-12.085s.976-10.952 3.085-15.512a38.906 38.906 0 0 1 3.359-5.47c1.992-3.044 4.93-4.85 7.976-6.892 8.963-5.905 20.153-8.74 30.316-12.165s21.247-4.02 31.304-7.606c6.854-2.45 14.05-3.24 21.09-4.52 6.51-1.16 12.245 1.398 14.947 7.34 2.873 6.3 6.26 13.114 4.257 20.086-2.715 9.594-5.905 19.123-10.953 27.795-6.222 10.688-13.787 20.783-25.044 26.7-7.91 4.178-16.503 6.51-24.861 9.635a97.29 97.29 0 0 1-19.601 5.522c-10.438 1.58-20.007 7.749-30.21 10.319a411.939 411.939 0 0 1-42.6 8.276 50.487 50.487 0 0 1-15.29.462c-2.411-.343-4.64-.12-6.933-1.134l-4.89-2.148c-5.572-2.412-10.963-6.405-10.33-13.18.605-6.365 2.912-12.77 4.11-19.017.83-4.151.91-8.25 1.925-12.401.752-3.165 1.463-6.394 2.333-9.532a26.867 26.867 0 0 1 3.282-7.748c2.966-4.152 5.273-9.002 8.397-12.955a33.092 33.092 0 0 0 3.61-4.68 18.251 18.251 0 0 1 2.756-4.214c1.199-1.318 2.03-3.045 3.308-4.363a59.205 59.205 0 0 1 8.067-6.14 111.208 111.208 0 0 1 19.646-11.558c6.748-2.94 13.787-4.903 20.72-7.236 6.222-2.148 11.982-5.535 18.164-7.907a94.604 94.604 0 0 1 21.696-5.272 352.07 352.07 0 0 1 44.55-3.097c18.69.08 39.398-6.998 57.14 1.924a19.556 19.556 0 0 1 9.95 10.439 58.637 58.637 0 0 1 4.522 23.723c-.04 3.453.37 7.037-.196 10.385z" fill="#c4b0b8" fill-rule="evenodd" opacity=".5" style="mix-blend-mode:multiply"/><path d="M50.233 161.629c1.318 3.453 3.005 6.471 4.125 9.977a30.003 30.003 0 0 0 3.005 7.143c1.398 2.267 2.241 4.85 3.572 7.183a35.944 35.944 0 0 1 3.493 8.184c.54 2.109.633 4.336 1.213 6.47l2.24 8.199a18.311 18.311 0 0 0 2.34 4.784c1 1.607 2.16 4.125 3.73 5.271 5.05 3.572 12.288 2.056 18.11 1.424 5.277-.567 10.68-.607 15.99-1.318a47.06 47.06 0 0 1 8.41-.198 63.04 63.04 0 0 1 8.003.909c2.293.448 4.52.514 6.827.883 3.309.528 6.59 1.318 9.91 1.66 3.705.29 7.515.83 11.218.91 5.273.093 10.716-.448 16.015.119a134.61 134.61 0 0 0 13.946 1.318c6.078 0 12.141-1.806 17.782-3.862 9.398-3.426 19.086-6.22 28.524-9.673a64.208 64.208 0 0 0 9.806-5.272c2.887-1.687 5.984-2.794 8.765-4.652a51.64 51.64 0 0 1 17.135-6.748c5.932-1.318 11.666-3.466 17.544-4.85 3.954-.922 7.724-2.926 11.652-3.44-.737 3.084-7.472 4.205-9.885 5.074-5.575 1.99-11.625 3.084-17.016 5.51-3.52 1.594-6.024 4.638-8.792 7.222-2.636 2.372-4.468 4.836-7.407 6.8a25.236 25.236 0 0 1-9.583 3.954c-7.58 1.515-14.973 4.23-22.526 5.904s-14.933 3.4-21.88 6.59c-1.923.896-7.58 3.123-7.815 5.904-.185 2.227 2.517 1.41 4.086 1.41 3.374 0 7.83-.804 11.006.527a39.618 39.618 0 0 0 7.09 2.715A31.97 31.97 0 0 0 228 235.868c7.25-2.82 15.17-4.257 22.79-5.707 5.272-1.015 10.4-2.53 15.66-3.637a106.94 106.94 0 0 1 12.231-1.45c5.957-.567 11.928-1.252 17.846-2.24 4.732-.804 9.912-1.318 14.25-3.387 3.597-1.767 7.815-2.874 10.992-5.35.843-.66 5.641-4.798 6.761-3.85 2.333 2.004-10.94 9.555-11.862 10.175a71.9 71.9 0 0 1-13.577 6.708c-6.036 2.464-12.23 3.545-18.453 5.113l-21.445 5.074c-7.13 1.82-14.499 2.73-21.63 5.114a75.186 75.186 0 0 0-10.464 4.1c-3.085 1.58-6.367 2.635-9.41 4.282-6.592 3.52-12.747 8.461-19.878 10.754a84.485 84.485 0 0 1-19.148 4.218c-8.555.685-17.136-.514-25.598-1.397a218.04 218.04 0 0 0-26.124-1.477c-8.067.132-16.12 1.82-24.174 2.201-5.55.264-10.004-1.713-15.105-3.61a90.407 90.407 0 0 1-15.896-8.053 26.837 26.837 0 0 0-15.013-4.086 19.538 19.538 0 0 0-3.335.765 5.567 5.567 0 0 1-3.612-.989c-4.745-2.227-9.503-5.89-11.862-10.794a57.802 57.802 0 0 1-4.44-16.592 77.051 77.051 0 0 1-.12-9.87c0-4.364-.79-8.66-.75-13.049 0-6.932-.79-14.286 1.396-20.994 2.043-6.313 6.248-12.204 10.083-17.529 2.188-3.018 3.954-6.26 6.235-9.225.804 1.582-1.107 4.613-1.503 6.247-.487 2.333-1.37 6.642-2.596 4.296zm325.434 37.825c-2.043 2.636-5.72 6.023-6.287 9.489s3.216 2.873 5.668 2.504c5.272-.83 10.808-1.318 15.817-3.4 2.965-1.226 5.733-2.926 8.7-4.165 2.451-1.041 5.074-1.41 7.525-2.438 5.84-2.465 12.127-3.769 17.913-6.432a51.4 51.4 0 0 0 13.642-9.989c2.847-2.729 5.59-4.85 7.553-8.369 1.436-2.636 3.15-5.14 4.336-7.908a44.468 44.468 0 0 0 2.834-11.532c.283-2.102.31-4.23.08-6.339-.66-4.823-5.51-5.27-9.61-4.705-5.048.7-9.108 3.638-12.85 6.853s-6.59 6.801-10.677 9.226c-4.495 2.741-8.87 5.51-13.18 8.474a39.594 39.594 0 0 0-6.473 5.1c-1.634 1.674-3.216 3.467-4.996 4.995a45.755 45.755 0 0 1-5.839 4.073c-1.647 1.028-3.163 2.477-4.85 3.36a23.952 23.952 0 0 0-6.01 4.284 16.45 16.45 0 0 0-3.256 3.835c-1.384 2.61-1.108 5.825-.04 3.084zm58.523-69.929c.87-2.715 1.45-3.73 3.954-5.035 1.556-.817 2.636-1.028 3.757.7 2.03 3.333.566 7.392-.752 10.608-.949 2.346-4.732 4.705-6.458 1.753-1.16-2.003-1.12-7.907 1.647-8.738l-2.148.712zm-214.096 99.187c1.318-2.439 1.621-2.702 3.954-3.585a14.651 14.651 0 0 1 4.706-1.424c2.016-.197 4.218-1.317 6.261-.553 3.137 1.12 2.544 3.875.421 5.825a6.473 6.473 0 0 1-3.137 1.872 21.89 21.89 0 0 1-5.02.71c-2.875.001-5.274.12-7.778-1.567a1.135 1.135 0 0 1 .66-1.318l-.067.04zm-119.906 180.49a78.415 78.415 0 0 0 25.465 4.361 263.23 263.23 0 0 0 30.751-.923c6.801-.645 13.55-.474 20.325-1.436 3.282-.475 6.406-.33 9.688-.488 1.885-.079 3.862-1.199 5.707-.619 7.13 2.174-5.536 6.273-6.973 6.985-5.142 2.556-10.902 3.44-16.372 5.034-2.11.606-4.26 1.213-6.328 1.924a48.821 48.821 0 0 1-5.852 2.175c-8.397 1.832-16.793 2.636-25.163 4.441a24.645 24.645 0 0 1-9.66.567c-3.348-.62-6.472-2.636-9.451-4.125a72.52 72.52 0 0 1-10.703-5.852 35.395 35.395 0 0 1-4.89-3.953 7.42 7.42 0 0 1-1.317-2.9c-.844-2.16-.804-3.03 1.055-4.613a5.277 5.277 0 0 1 5.06-1.133c.013.211.053.41-1.33.554zm217.194 84.253a42.409 42.409 0 0 0-11.995 5.483c-1.608 1.133-3.585 3.07-1.212 4.52 3.203 1.95 8.41.909 11.862.606 5.958-.54 11.863-1.634 17.768-2.412 4.033-.54 7.988-.962 11.968-1.766a127.987 127.987 0 0 0 15.277-4.401 46.636 46.636 0 0 0 10.545-4.903 89.526 89.526 0 0 0 10.11-6.59c4.098-3.44 9.503-6.128 11.084-11.624 1.318-4.573-8.567-2.925-10.544-2.635a108.546 108.546 0 0 0-21.525 5.363c-3.018 1.068-6.247 1.885-9.226 3.177-3.954 1.752-7.737 3.835-11.77 5.39-1.912.75-3.586 1.95-5.524 2.636-1.7.622-3.413 1.188-5.1 1.873s-3.77 1.619-5.695 2.239c-4.349 1.49-8.725 2.69-6.023 3.033zm78.993-33.304c.751-2.46 2.332-3.59 4.165-5.37 1.423-1.381 2.781-2.87 4.85-3.16 1.53-.224 3.954 1.542 3.282 3.295a12.87 12.87 0 0 1-2.069 2.636 7.839 7.839 0 0 1-2.715 2.635 9.854 9.854 0 0 1-7.039.447l-.474-.475zm25.69-59.93a33.565 33.565 0 0 1-5.445 2.637c-1.435.329-2.887.58-4.349.75-4.363.686-8.87.99-13.274 1.424l-16.845 1.779c-9.938.75-20.39 1.608-29.894 4.665a134.316 134.316 0 0 0-23.119 9.845 121.728 121.728 0 0 0-18.598 11.861 58.558 58.558 0 0 0-5.365 5.167 14.864 14.864 0 0 0-3.018 3.955c-1.041 2.346-.092 3.954 1.964 5.272 3.203 2.044 7.091 2.228 10.755 2.729l16.279 2.28a158.054 158.054 0 0 0 16.924 1.846c5.813.262 11.863.143 17.399-1.965a78.876 78.876 0 0 0 11.388-5.127c3.559-2.043 7.104-4.06 10.479-6.392a53.326 53.326 0 0 0 7.117-5.021c.936-.883 1.885-1.648 2.86-2.465 1.516-1.318 2.637-2.912 4.152-4.191a59.008 59.008 0 0 0 9.227-9.7c2.083-2.741 4.613-5.074 6.67-7.815 1.212-1.634 2.478-2.491 3.202-4.494a30.354 30.354 0 0 0 1.49-7.038zm11.888-8.143a14.506 14.506 0 0 1 3.664-4.375c1.2-1.133 2.782-3.123 4.442-3.65a2.435 2.435 0 0 1 2.491.38 3.19 3.19 0 0 1 .64 1.18 3.22 3.22 0 0 1 .1 1.337c-.345 2.003-2.296 3.558-3.957 4.428-2.069 1.068-3.282.527-5.457.224l-1.924.475zm75.658-70.824a17.919 17.919 0 0 0-2.953 2.873c-1.318 1.91-2.425 3.953-3.954 5.706a43.185 43.185 0 0 0-4.099 6.208c-1.556 2.714-3.388 5.269-4.838 7.999-3.137 5.954-5.628 12.228-8.435 18.343-1.41 3.057-2.637 6.194-3.955 9.225a40.747 40.747 0 0 0-3.36 10.24c-.409 2.556-1.068 6.945 2.372 7.406 4.27.58 8.567-3.097 11.678-5.548a93.1 93.1 0 0 0 20.641-23.262c5.536-8.75 10.901-19.268 9.517-29.93a57.485 57.485 0 0 1 .316-14.497c.66-5.1 2.228-10.2 2.32-15.366 0-3.664.672-7.25-.132-10.86a4.653 4.653 0 0 0-1.555-3.058c-.949-.553-1.608 0-2.465.646a19.229 19.229 0 0 0-6.01 7.183c-1.688 3.505-1.78 7.288-3.203 10.886a38.9 38.9 0 0 1-1.384 3.77c-.528.988-1.174 1.937-1.714 2.94a24.955 24.955 0 0 0-1.766 5.653c-.317 1.2-.5 2.32-.83 3.52-.264.936-.673 1.938-.857 2.887s.145 1.712 4.666-2.966zm-39.49 63.273c-.856.843-6.037 5.85-4.033 7.13.554.356 2.083 0 2.636-.25a10.65 10.65 0 0 0 2.834-1.964 3.508 3.508 0 0 0 1.41-3.44c0-2.254-1.423-2.188-3.32-1.424l.473-.052zm12.364 11.887c1.107-1.476 1.423-2.108 2.98-2.714a18.86 18.86 0 0 1 3.584-1.62c1.647-.264 2.412.355 2.544 2.016.237 2.833-3.256 6.497-4.825 8.514a39.545 39.545 0 0 1-6.59 7.063c-3.572 2.793-6.169-1.715-4.837-5.06.804-2.03 1.133-4.43 2.4-6.236 1.976-2.833 4.928-2.82 8.092-3.4l-3.348 1.435zM206.531 88.13a12.14 12.14 0 0 0-6.037 7.907c-.501 1.62-1.134 5.074.224 6.47 2.32 2.399 8.541-.223 10.795-1.093 4.389-1.687 8.858-4.191 13.43-5.272 8.635-1.99 18.112-2.794 25.533-8.105a45.656 45.656 0 0 0 10.689-11.36c1.872-2.73 4.337-4.943 4.587-8.462.488-7.116-9.451-7.59-14.13-6.497a140.232 140.232 0 0 0-28.998 9.819c-5.456 2.635-12.23 5.983-16.08 10.886a18.267 18.267 0 0 0-2.32 4.44c-.475 1.12-1.529 4.35 2.307 1.266zm18.558 19.979c-1.173-2.636-1.753-2.86.198-4.455a31.67 31.67 0 0 1 5.272-3.281 15.367 15.367 0 0 1 7.144-1.608c4.983.593 2.716 6.207 1.174 8.909-.963 1.7-1.674 3.268-3.283 4.178-1.898 1.08-3.176 1.634-5.272.935a11.696 11.696 0 0 1-3.954-2.517c-.844-.751-2.808-2.122-2.636-3.466l.62-.119.737 1.424zm-34.981 61.375c.118-2.36-.079-2.886 1.397-4.375 2.188-2.241 5.404-3.954 7.988-5.615a80.655 80.655 0 0 1 18.901-8.803 112.605 112.605 0 0 1 18.123-4.204c4.587-.712 8.924-2.228 13.537-2.873 7.105-.976 15.817-4.415 21.498 2.319 4.561 5.456-3.875 12.678-7.908 15.644a30.05 30.05 0 0 1-11.455 5.047c-4.916 1.239-9.767 2.715-14.683 3.954-9.134 2.267-17.623 6.59-26.362 10.03-6.023 2.345-10.32 2.12-15.738-1.463-2.939-2.017-7.934-7.17-5.298-9.661zm82.788-40.671c-1.186 2.188-4.138 6.194-.329 7.565 2.162.778 3.717-.962 5.272-2.201s3.862-2.636 5.048-4.652a3.33 3.33 0 0 0 .581-3.069 3.346 3.346 0 0 0-2.215-2.203c-4.468-1.99-6.59 2.293-9.134 5.272l.777-.712zm69.951-43.531c-3.954 4.112-6.34 8.896-5.694 14.735s4.455 6.932 9.226 4.547a27.194 27.194 0 0 0 4.139-2.122c1.318-1.028 2.135-2.952 3.137-4.297a15.563 15.563 0 0 0 3.414-10.016c0-3.598.422-7.446-.54-10.925-.528-1.925-1.318-4.508-3.006-5.694-2.003-1.318-3.532.435-4.995 1.62a12.187 12.187 0 0 0-3.585 3.428 40.883 40.883 0 0 0-3.599 9.436l1.503-.712zM262.194 208.02c.171-2.715.092-2.899 2.056-4.402a45.77 45.77 0 0 1 4.521-3.32 26 26 0 0 1 9.78-3.019 13.946 13.946 0 0 1 7.908 1.318c1.543.87 1.832 2.636 1.45 4.468-.54 2.57-3.097 4.204-5.008 5.72s-4.548 3.545-6.96 4.125a17.957 17.957 0 0 1-8.95.356c-1.792-.475-5.575-1.226-5.536-3.77l.74-1.476zm34.968-24.974c1.753-2.478 2.861-4.679 5.536-6.3 1.16-.712 4.073-2.886 5.563-2.886a3.097 3.097 0 0 1 2.462 2.398c.16 1.252-1.068 2.926-1.74 3.954a14.492 14.492 0 0 1-6.077 5.166 4.985 4.985 0 0 1-3.584.396c-1.317-.369-1.792-1.595-2.859-1.99l.712-.738zM158 77.428c-3.506 3.479-6.366 7.156-7.5 12.138a3.825 3.825 0 0 0 1.015 4.177c1.859 1.648 4.23.752 6.406 0 6.089-2.069 11.863-5.706 17.135-9.225 4.85-3.19 11.349-4.085 15.066-8.725 2.016-2.504 4.125-5.271 2.188-8.592-1.687-2.834-5.971-4.046-8.99-4.1a26.222 26.222 0 0 0-12.535 3.386A43.284 43.284 0 0 0 158 77.428zm-19.982-14.985c6.749-1.318 12.574-2.702 18.453-6.3 1.186-.712 2.373-1.054 3.506-1.7s1.318-1.397 2.162-2.188c-.58-2.74-7.975-1.094-9.675-.37-2.267.95-4.56 2.28-6.762 3.388a23.914 23.914 0 0 0-3.427 1.872c-2.201 1.634-3.519 4.468-4.995 6.72l.738-1.422z" fill="#c4b0b8" fill-rule="evenodd" opacity=".63" style="mix-blend-mode:soft-light"/><path d="M347.842 212.831a60.902 60.902 0 0 1-6.01 3.321c-3.388 1.384-6.472 3.334-9.833 4.784-3.954 1.713-8.225 2.846-12.298 4.243a83.565 83.565 0 0 0-16.515 7.42c-5.273 3.216-10.308 7.908-13.01 13.496-1.542 3.229-2.175 7.59-.29 10.846a11.784 11.784 0 0 0 4.85 4.85c3.467 1.555 6.84.567 10.32-.25a53.735 53.735 0 0 0 12.694-4.494c2.149-1.12 4.192-2.425 6.34-3.559s4.745-2.056 7.105-3.018a70.55 70.55 0 0 1 5.589-2.003 21.485 21.485 0 0 0 6.405-3.426 33.235 33.235 0 0 0 9.398-10.373c2.94-5.27 4.469-10.648 3.454-16.553-.791-4.573-4.152-6.813-8.2-5.284zm-64.717 32.776c-1.318-1.753-2.162-1.581-4.271-1.463a36.2 36.2 0 0 0-4.837.857c-7.909 1.661-15.975 2.504-23.831 4.52a53.504 53.504 0 0 0-12.548 4.455c-3.954 2.135-8.08 4.046-11.968 6.38a93.321 93.321 0 0 1-28.774 11.781l-19.126 3.822-11.586 2.11c-3.835.79-7.631 1.91-11.48 2.766a146.015 146.015 0 0 0-20.285 5.694c-6.736 2.543-13.603 4.902-18.875 10.003-2.702 2.635-6.169 6.444-6.156 10.451a15.53 15.53 0 0 0 2.636 7.907c5.273 8.725 15.409 13.904 24.214 18.372 12.205 6.194 26.717 6.998 40.069 8.54a166.208 166.208 0 0 0 52.21-2.636l23.211-4.547c9.332-1.752 18.77-2.99 28.075-4.942 7.658-1.62 15.369-3.413 22.895-5.6a94.549 94.549 0 0 0 12.14-4.258 99.42 99.42 0 0 0 9.978-5.522 70.286 70.286 0 0 0 7.908-5.074 35.403 35.403 0 0 0 5.563-6.102c2.741-3.532 4.507-7.433 6.695-11.268a84.263 84.263 0 0 1 4.745-7.855c1.78-2.438 3.876-4.73 5.813-7.05 4.06-4.89 9.042-9.108 12.838-14.182 2.215-2.952 4.376-6.668 4.68-10.398.21-2.543.224-5.153-2.439-6.313a15.825 15.825 0 0 0-8.185-.87 49.644 49.644 0 0 0-8.093 2.307 75.67 75.67 0 0 0-13.537 5.35c-10.861 5.826-21.551 13.06-33.782 15.657-5.049 1.08-10.097 1.635-14.947-.37a49.968 49.968 0 0 1-10.321-5.402c-4.218-3.044-2.94-6.656-1.094-10.82.79-1.845 3.084-5.84 2.465-6.3zm234.565-56.618a91.305 91.305 0 0 1-1.067 13.272l-.91 5.878c-.408 2.636-1.66 4.955-2.28 7.551-1.107 4.653-3.32 8.685-5.272 12.995s-3.269 9.028-5.273 13.456c-5.456 12.547-8.712 25.844-14.037 38.431-2.636 6.233-5.035 12.678-7.909 18.78-2.636 5.496-5.76 10.754-8.488 16.184-1.028 2.03-3.836 5.772-1.7 7.907 1.7 1.687 4.797.132 6.59-.83 7.17-3.835 10.215-12.915 14.631-19.281 2.24-3.216 5.681-5.641 8.014-8.83 3.04-4.165 6.65-9.133 8.65-13.838 4.165-9.74 6.722-19.835 10.333-29.772 2.992-8.211 3.44-16.171 3.44-24.79 0-3.611.41-7.235-.686-10.688-1.002-3.256-1.793-8.646-4.047-26.425zm-13.312 12.363c-3.03 2.912-9.226 10.068-6.274 14.826 1.621 2.636 6.34 1.476 8.001-.764 1.423-1.924 1.12-5.14 1.12-7.394 0-1.24.409-3.097 0-4.217s-1.582-1.318-1.832-2.451h-1.015zM446.33 339.351a102.613 102.613 0 0 0-11.138 7.63 69.455 69.455 0 0 1-10.716 5.918 111.066 111.066 0 0 1-29.749 9.304c-13.181 2.307-26.731 4.06-39.543 8.29l-28.998 10.029c-9.094 3.216-19.428 5.523-27.521 10.966-1.99 1.317-4.666 3.413-3.954 6.102 1.133 4.296 9.95 4.467 13.088 4.599 9.453.395 19.049 0 28.526 0 4.548 0 9.109-.25 13.643.198a85.99 85.99 0 0 0 16.976 0c7.105-.633 14.5-.488 21.38-2.636 13.18-4.231 26.269-9.226 39.174-14.273 11.572-4.573 28.365-14.023 27.35-28.48-.435-6.26-4.31-15.011-8.528-17.647zm19.033 11.387c-1.925-3.954-2.439-4.995-.356-8.646 1.318-2.319 5.272-5.733 8.225-5.746 5.891 0 6.076 6.748 4.758 10.846-1.16 3.585-2.636 9.041-6.92 9.226a4.529 4.529 0 0 1-3.757-1.16c-1.397-1.028-3.321-4.31-4.811-4.56l2.861.04zm-414.84 11.413c-1.068 4.481-1.714 8.566.474 12.876 3.018 5.996 9.688 10.016 15.817 11.953a46.1 46.1 0 0 0 11.863 1.832c4.494.21 8.976.91 13.47.989 6.73.083 13.444.615 20.101 1.594 3.704.54 7.29 1.62 10.98 2.069a78.26 78.26 0 0 1 8.541 1.397c6.011 1.397 11.995 1.437 18.058 2.28a69.12 69.12 0 0 0 19.323-.44c5.55-.83 11.428-1.566 14.064-6.93 2.07-4.216.553-6.483-3.137-9.356-3.282-2.557-8.792-3.664-12.64-4.93-5.892-1.95-11.745-3.755-17.795-5.271-8.435-2.043-16.555-5.047-24.898-7.512-17.135-5.048-33.572-12.085-51.498-13.706-7.42-.686-16.199-.765-23.053 2.636a10.08 10.08 0 0 0-4.719 5.535c-1.476 3.569.303 5.719 5.05 4.994zm-1.003-31.393c.99 3.137.791 4.112 3.691 4.995a10.15 10.15 0 0 0 5.892.566c2.452-.711 5.378-2.517 5.694-5.087.356-2.86-2.175-4.981-4.508-6.233-4.679-2.504-8.449-2.307-10.769 2.899v2.86zm200.784-210.274a9.42 9.42 0 0 1 1.015-4.929 46.416 46.416 0 0 1 3.27-6.14c.91-1.319 1.488-2.782 2.345-4.153 1.213-1.937 2.452-3.703 3.493-5.746a40.687 40.687 0 0 1 5.273-7.09 25.97 25.97 0 0 0 3.321-4.77c.751-1.425 1.885-2.53 2.636-3.955 1.002-1.74 1.674-3.782 2.636-5.6a52.54 52.54 0 0 1 3.19-5.708 14.916 14.916 0 0 1 2.9-3.756 19.73 19.73 0 0 1 2.834-2.372c2.293-1.002 3.466-.21 4.653 1.91a24.251 24.251 0 0 1 2.451 12.047 45.367 45.367 0 0 1-2.359 12.665 49.387 49.387 0 0 1-4.139 8.158c-2.807 4.942-6.168 9.515-9.45 14.154-1.938 2.742-5.207 5.008-7.909 7.077a17.46 17.46 0 0 1-5.536 2.926c-1.133.37-2.715 1.147-3.954.896a24.403 24.403 0 0 1-3.36-1.318c-2.743-1.014-4.06-3.373-3.31-4.296zm-10.465 3.81c-1.648.83-3.375 1.41-4.073 3.215-.198.487-.514 1.528-.172 2.042 1.318 1.911 5.853-.645 6.881-1.673s2.162-2.913 1.173-4.27a2.648 2.648 0 0 0-1.848-.949 2.637 2.637 0 0 0-1.961.685v.95zm84.212-68.032a10.23 10.23 0 0 0-2.992 1.99 10.162 10.162 0 0 0-.923 2.398 39.244 39.244 0 0 0-2.214 9.345c-.316 3.136-.409 8.685 3.256 9.976 7.117 2.504 17.517-2.636 18.097-10.609.329-4.534-2.135-8.75-4.785-12.204a26.528 26.528 0 0 0-4.534-4.955 5.76 5.76 0 0 0-4.257-1.2c-2.465.501-4.337 2.953-1.648 5.26zm-1.437 39.01c0-1.555 0-1.937 1.028-2.952a7.506 7.506 0 0 1 2.32-1.74c1.687-.553 2.781.7 2.86 2.294.066 1.212.12 3.677-.975 4.52s-5.523.08-5.272-1.647l.04-.475zm51.867-32.355c-.725 2.966-.619 6.023-1.186 9.054a105.003 105.003 0 0 0-1.635 15.038c-.092 2.636 0 5.18-.13 7.776a62.662 62.662 0 0 0-.318 9.568c.422 4.125.883 8.461 3.625 11.755 1.951 2.346 4.68 1.49 7.25.541a29.884 29.884 0 0 0 5.746-3.664 30.609 30.609 0 0 0 4.06-3.176c5.681-5.272 10.795-11.084 13.075-18.715 1.648-5.548 3.27-11.86 1.912-17.58a22.081 22.081 0 0 0-4.785-9.924 22.268 22.268 0 0 0-6.696-4.996c-2.096-1.12-4.363-1.212-6.59-1.74a25.114 25.114 0 0 0-5.694-.605 27.888 27.888 0 0 0-5.273.527c-3.73.698-4.653 5.654-3.36 6.14zm5.707 61.85c.66-2.069 2.15-4.204 4.587-3.07a3.655 3.655 0 0 1 1.858 4.744 3.187 3.187 0 0 1-3.69 1.581 5.458 5.458 0 0 1-2.307-1.818c-.857-1.147-.158-2.043 0-3.348l-.448 1.911zm6.67 50.898a24.708 24.708 0 0 0-5.536 1.173 4.207 4.207 0 0 1-.699 1.16c-.382.501-1.516 1.16-1.318 1.885 2.4 1.014 5.826-.607 7.91-1.727a14.119 14.119 0 0 0 3.043-2.003 12.445 12.445 0 0 0 1.622-1.727c.764-1.383 0-2.108-1.41-2.095s-4.864 1.107-4.996 2.86l1.384.474zm78.98-8.079a9.421 9.421 0 0 1-1.068 4.653c-.672 1.7-1.62 3.716-1.318 5.614.66 4.494 6.867 3.598 10.03 3.19 3.717-.488 7.25-1.319 10.031-3.954a10.27 10.27 0 0 0 3.651-6.76c.66-4.772 1.766-12.838-5.272-12.746a15.306 15.306 0 0 0-8.093 2.98 18.736 18.736 0 0 0-4.23 4.124c-1.636 1.911-3.442 3.506-3.732 2.9zm-49.482 258.747c2.057-6.668 5.273-12.335 11.376-16.118 1.423-.883 2.636-2.029 4.336-1.146 1.397.738 1.134 2.36.7 3.743a20.176 20.176 0 0 1-3.547 5.864 57.714 57.714 0 0 1-4.536 4.587 7.825 7.825 0 0 1-3.323 2.148 17.29 17.29 0 0 0-4.997.922zm-242.184 7.657c.12-2.556 1.595-3.756 3.611-5.443a44.64 44.64 0 0 1 15.092-7.643c4.667-1.463 10.23-2.49 15.066-1.16 2.162.606 4.864 1.647 5.787 3.861 1.581 3.822-2.53 9.45-5.576 11.558-3.836 2.636-9.385 3.453-13.774 4.784a31.026 31.026 0 0 1-12.64 1.068 18.337 18.337 0 0 1-4.495-.83 40.906 40.906 0 0 1-4.086-1.239c-1.186-.633-2.728-1.62-2.834-3.03a4.583 4.583 0 0 1 .58-2.426c.751-1.213 2.333-1.37 3.27.5z" fill="#c4b0b8" fill-rule="evenodd" opacity=".47" style="mix-blend-mode:multiply"/><path d="M458.943 150.401c-1.555 1.041-4.508 2.517-3.954 4.863.348 1.045.753 2.07 1.213 3.071a13.22 13.22 0 0 1 .567 2.846 8.608 8.608 0 0 0 1.753 4.363c.711.777 1.463 0 1.95-.751a5.278 5.278 0 0 0 1.108-2.636 18.18 18.18 0 0 1 .434-3.69c.132-.475.488-.897.594-1.318a8.12 8.12 0 0 0 .079-2.03 5.102 5.102 0 0 0-3.744-4.718zm-24.859 133.808c-.276.145-.606.25-.751.54-.066.16-.106.329-.119.501-.065.751.976 1.081 1.49 1.226a5.672 5.672 0 0 0 4.534-.475 4.254 4.254 0 0 0 1.964-2.807 3.853 3.853 0 0 0-2.162-3.466 3.776 3.776 0 0 0-3.809-.382 2.43 2.43 0 0 0-1.002 1.147c-.145.395-.118.817-.237 1.212s-.514.923-.435 1.502c.055.385.24.739.527 1.002zm8.476 2.544a.88.88 0 0 1 .408-.791.673.673 0 0 1 .883-.119 1.153 1.153 0 0 1 .453.755 1.146 1.146 0 0 1-.215.853 1.214 1.214 0 0 1-1.094.343.948.948 0 0 1-.686-.975l.251-.066zm20.839-31.644c-.51.044-.983.285-1.318.673a.889.889 0 0 0-.343.804 3.955 3.955 0 0 0 1.397 2.464 1.999 1.999 0 0 0 1.74.343 5.4 5.4 0 0 0 1.463-.962 11.76 11.76 0 0 0 1.173-.962 2.321 2.321 0 0 0 1.028-2.28 2.487 2.487 0 0 0-1.73-1.846 3.228 3.228 0 0 0-1.73.159c-.688.184-1.176.184-1.69 1.607zm-3.889 2.78c.419.156.798.403 1.107.726-.079.21.132.395 0 .62s-.725.079-.962 0a1.315 1.315 0 0 1-.738-.673c0-.118-.29-.632 0-.58l.593-.092zm-46.291 17.134c-.422.475-.896.989-.593 1.727a1.521 1.521 0 0 0 1.687.659c.33 0 .699-.132.844-.488s.197-.791.316-1.16c.277-.89 1.318-1.31.79-2.38a1.74 1.74 0 0 0-1.212-.931c-.857 0-1.53.79-2.03 1.489l.198 1.094zm-125.573 89.46c.263-.566.579-1.607 1.555-1.963a2.754 2.754 0 0 1 1.819 0c1.463.237 2.913.698 1.951 2.148a4.645 4.645 0 0 1-2.637 1.516c-.87.145-2.478-.132-2.399-.87l-.289-.831zm88.443-307.3c-.33 1.319-.778 2.967.724 3.955 1.029.633 2.637 0 3.493-.698a9.327 9.327 0 0 0 2.874-5.074c.224-1.727-1.859-3.572-3.44-3.77-3.23-.395-4.956 4.732-5.141 7.144l1.49-1.556zm-7.197 290.747a7.092 7.092 0 0 0-1.055 5.1c.132 1.068.145 2.505 1.542 2.86 3.296.83 6.71-5.271 7.593-7.287a10.562 10.562 0 0 0 1.041-5.088c-.092-.962-.804-2.846-1.951-3.242a4.751 4.751 0 0 0-4.402 1.516c-2.478 2.467-2.294 5.327-3.638 8.002l.87-1.872zm-1.727-.224a11.9 11.9 0 0 0-2.517.659c-.409.238-1.055.607-1.2.989s.16.975.554 1.318a1.324 1.324 0 0 0 1.186.184 3.17 3.17 0 0 0 .844-.725 8.078 8.078 0 0 0 1.002-1.318 3.16 3.16 0 0 0 .421-.672c.119-.36-.158-.46-.237-.73l-.053.305zm-3.769 14.629 1.107.33c-.119.369 0 .777-.475 1.054a2.867 2.867 0 0 1-1.476.198c-.488-.106-.765-.382-.699-.804s.673-.738 1.239-.883l.304.105zm-55.782 12.31c0 .395 0 .672.448.843a2.31 2.31 0 0 0 2.215-.474c.804-.752 1.516-2.135 1.015-2.887a1.773 1.773 0 0 0-2.215-.25c-.4.283-.771.605-1.107.962a2.152 2.152 0 0 0-.382 1.713l.026.093zM248.96 279.61c-.395.355-.593.474-.685.975a2.106 2.106 0 0 0 .171 1.621 5.76 5.76 0 0 0 3.362 1.95 3.064 3.064 0 0 0 2.715-.514 3.955 3.955 0 0 0 1.753-2.754 2.64 2.64 0 0 0-1.147-2.9 8.087 8.087 0 0 0-3.06-1.449 2.72 2.72 0 0 0-2.39.738c-.66.553-1.53 1.555-.727 2.333zm8.647 3.861c0-.316 0-.698.317-.791a2.183 2.183 0 0 1 1.568.633c.29.337.45.768.448 1.212a1.32 1.32 0 0 1-.553.712 1.092 1.092 0 0 1-1.318.092c-.277-.171-.949-.527-.844-.935l.382-.923zm-165.459-33.74a17.777 17.777 0 0 1-3.427-11.649c.103-1.779-.095-4.995 2.436-4.745 3.4.33 5.14 5.602 6.09 8.237 1.41 3.954 2.78 7.908 2.28 12.138-.687 5.786-8.306-5.733-9.057-6.8l1.687 2.82zm7.33-19.122c-.607 3.36.895 8.132 4.533 9.226 1.318.382 1.78-.422 2.465-1.648a4.722 4.722 0 0 0 .633-3.953 12.104 12.104 0 0 0-1.57-2.504 8.467 8.467 0 0 1-.935-1.41c-.25-.54-.158-.963-.58-1.437-1.015-1.147-4.943-2.082-4.547.593v1.133zm37.064 238.346a10.778 10.778 0 0 1 4.151-5.206 22.413 22.413 0 0 1 7.118-3.163 12.107 12.107 0 0 1 7.21.554c2.228 1.186 4.205 2.952 6.314 4.322 1.911 1.252 3.835 1.95 5.51 3.612a15.18 15.18 0 0 1 3.387 5.39c1.16 3.057 2.003 7.749.698 10.859-1.186 2.834-2.86 2.874-5.694 2.82-3.954-.065-7.816-3.307-10.32-6.207a29.246 29.246 0 0 0-3.783-4.204c-1.806-1.423-3.69-2.741-5.589-4.033a55.132 55.132 0 0 1-5.39-3.4c-.726-.643-3.072-2.436-3.612-1.355zm68.513-179.685c-.25 1.45-.619 2.082.448 2.794a1.939 1.939 0 0 0 2.254 0c.804-.475 2.637-2.188 2.36-3.203-.475-2.122-5.8-2.2-5.523.37l.461.04zm99.766 68.07c-.857-3.953 3.176-9.713 7.737-12.942 6.498-4.612 16.371-5.614 23.646-4.64 6.103.805 11.112 4.034 12.338 8.41.33 1.173.105 2.398.382 3.57.224.896.461 1.41-.857 2.162-3.282 1.858-8.475 3.004-12.166 3.611a69.399 69.399 0 0 1-12.482 1.32c-3.533-.08-6.907-.59-10.439-.72a28.083 28.083 0 0 1-5.022-.433c-.83-.158-2.9.132-3.137-.33zm33.466-24.368c.606.751.633 1.186 1.832 1.318a4.973 4.973 0 0 0 2.636-.778c.963-.553 2.294-1.871 1.82-2.635-.844-1.437-6.59-.58-5.998 1.318l-.29.777zm90.29-76.439a8.113 8.113 0 0 1 1.172-3.058 2.518 2.518 0 0 1 1.911-.356 3.88 3.88 0 0 1 3.005 1.74 5.436 5.436 0 0 1 1.318 1.937c.91 4.152-6.406 2.36-7.368-.263h-.039z" fill="#c4b0ff" fill-rule="evenodd" style="mix-blend-mode:soft-light"/><path d="M454.916 528.005c58.817-37.654 91.749-91.211 73.556-119.623s-80.623-20.92-139.441 16.734-91.74 91.211-73.55 119.623 80.627 20.92 139.44-16.734z" fill="url(#d)" style="mix-blend-mode:screen"/></g><g fill="#cab3da"><path d="M582.013 432.573c10.754-1.522 21.584-6.119 32.466-15.704 24.268-21.373 19.638-57.973 1.431-79.763-18.61-22.203-56.388-35.345-101.62.711-76.615 61.071-108.494 38.815-108.805 38.569l-5.564 7.19c1.477 1.171 37.014 27.531 120.092-38.663 40.082-31.891 72.243-21.969 88.98-1.985 15.466 18.508 19.686 49.385-.462 67.112-25.006 22-49.922 13.55-76.299 4.619-10.61-3.604-21.582-7.322-32.638-8.999-39.483-5.988-64.105 17.56-65.136 18.56l6.356 6.498a71.598 71.598 0 0 1 57.418-16.062c10.25 1.543 20.845 5.135 31.092 8.61 17.181 5.86 34.833 11.834 52.69 9.307Z"/><path d="M525.546 517.354s22.627 20.254 39.771 10.362l-39.771-10.362Z" fill-rule="evenodd"/></g><path d="M212.762 349.467c8.982 16.667 52.068 32.41 73.976 26.053a27.09 27.09 0 0 0 2.88-1.001c12.927-5.473 20.84-20.736 24.734-30.657a79.313 79.313 0 0 0 3.033-8.984l-5.615-44.74s-.567.191-1.532.59a78.16 78.16 0 0 0-16.212 8.973c-8.325 6.201-38.376 16.844-54.913 15.528s-23.008-5.61-26.783-4.49-5.9 8.03-5.9 8.03-3.136 13.125 6.332 30.688z" fill="url(#e)" fill-rule="evenodd"/><path d="M206.431 318.779s6.409-3.46 9.71.364 10.49 28.872-3.368 30.309-6.329-30.675-6.329-30.675l-.013.002z" fill="#684d73" fill-rule="evenodd"/><path d="M210.151 319.812s4.09 13.398-2.101 26.1c0 0-9.084-15.92 2.101-26.1Z" fill="#53345f" fill-rule="evenodd"/><path d="M177.826 323.256a45.706 45.706 0 0 0 20.242 16.273 50.2 50.2 0 0 0 11.199 3.479 26.928 26.928 0 0 0 1.893-17.82l-2.491-3.856c-3.471-5.028-9.626-13.512-14.455-16.043l.57 6.363s-6.38-8.218-20.122-5.679c.014-.002-6.491 2.685 3.164 17.283z" fill="#d9d9d9" fill-rule="evenodd"/><path d="M256.825 313.632s9.576 10.235 13.826 33.919-11.773 27.566-11.773 27.566 10.084 2.422 17.041 1.85c0 0 37.241-15.012-4.463-67.2l-14.631 3.865z" fill="url(#f)"/><g fill-rule="evenodd"><path d="M314.352 343.862c1.062 3.41 2.36 6.924 3.737 10.607l10.216-26.29-13.953-38.72-4.026.805c-.048.145-.07.286-.116.444a78.18 78.18 0 0 0-16.212 8.973s34.116 25.196-4.393 74.733c12.941-5.378 20.853-20.64 24.747-30.562Z" fill="url(#g)" style="mix-blend-mode:multiply"/><path d="M364.587 554.764s5.754-15.592 43.541-17.202c.005.041-12.025 20.33-43.541 17.202zm164.189-77.565s-23.97 3.393-32.477 32.194c0 0 11.011 2.83 22.943-6.656s9.534-25.538 9.534-25.538z" fill="#311745"/><path d="m392.296 559.853 16.421-8.865s-.904-4.44-2.089-11.543c-3.038-17.95-7.926-52.775-4.918-75.195l-68.904-29.792.905 11.076c1.81 19.669.22 60.033 6.67 75.044 8.688 20.117 51.925 39.275 51.925 39.275z" fill="url(#h)"/><path d="M332.802 434.431a120.434 120.434 0 0 0 66.038 30.598l2.87-.779 15.33-4.198a1.24 1.24 0 0 0-.022-.149l-.044-.311a1.56 1.56 0 0 1-.035-.244 2.503 2.503 0 0 1-.044-.311c-.849-6.972-4.875-50.916 21.574-93.819a113.01 113.01 0 0 1-10.707-10.724 223.825 223.825 0 0 0-2.117-2.377c-3.413-3.836-7.547-8.673-12.443-14.796l-40.856-49.41-9.258-11.108-2.305-2.737-1.962-2.358s-29.689 19.919-48.007 16.648c0 0-.202.622-.499 1.837-.047.158-.068.3-.117.444-1.472 6.362-4.507 25.475 4.11 53.107 1.076 3.408 2.36 6.924 3.748 10.591a112.465 112.465 0 0 0 1.603 3.913 235.53 235.53 0 0 0 9.57 65.746 190.212 190.212 0 0 0 3.573 10.437z" fill="#cab3da"/><path d="m375.717 315.913 2.359 2.923c12.892 15.533 31.457 29.905 49.724 35.736 11.196 3.548 22.237 3.862 31.786-.719 21.326-10.277 28.205-30.113 29.79-35.87a4.91 4.91 0 0 1 .144-.545c.025-.16.063-.317.113-.471l.138-.585s6.53-5.96 2.54-13.785-13.13-18.493-13.13-18.493l-4.395.429s-3.49-5.15-9.491-4.176-18.105 8.082-37.131 6.636c-16.733-1.247-42.47-7.607-51.186-10.692a15.178 15.178 0 0 1-2.65-1.087 26.808 26.808 0 0 0-9.503-2.891l-2.39 1.138-1.578.75-4.847 2.32s-1.35 12.984 19.72 39.39z" fill="url(#i)"/><path d="m417.038 460.052 49.554 33.166c9.695 7.182 36.457 16.102 49.604 16.076.32.011.642.002.962-.025 12.354-.452 16.249-9.2 16.249-9.2l-1.75-6.223-5.964-20.005c-3.087-9.912-6.484-19.78-8.763-23.597-3.877-6.53-44.855-49.782-65.983-71.932l-12.465-13c-30.762 30.958-22.911 86.033-21.576 93.806.008.105.023.21.044.311.006.082.018.164.035.244l.038.27a.985.985 0 0 1 .015.11z" fill="url(#j)"/><g fill="#53345f"><path d="M353.272 277.64s-14.401 14.457-20.642 17.355-21.77-6.508-21.77-6.508 15.639-.158 42.412-10.847zm11.526-5.329s7.163 52.648 53.527 79.463c0 0-41.119-17.54-65.053-74.134l11.526-5.329z"/><path d="M314.346 289.525s-1.785 40.613 5.349 68.883c0 0-15.659-30.21-13.268-65.954l4.433-3.967 3.486 1.038zm131.8 83.727s-21.426 20.584-22.635 91.002l-6.432-4.208s-12.947-66.414 21.426-94.764l7.641 7.97zM329.3 424.205s36.494 38.299 72.395 40.033l-.472 4.372s-36.03 3.196-67.772-26.282l-4.152-18.123z"/></g><path d="M489.781 316.352s6.525-5.96 2.533-13.784-13.132-18.493-13.132-18.493l-4.396.429s-11.674 22.612 14.995 31.848z" fill="#684d73"/><path d="M490.823 308.699s-16.281-11.494-11.687-24.563c.046-.061 16.32 18.305 11.687 24.563Z" fill="#53345f"/><path d="M479.245 293.297s-2.487-11.819 6.12-19.053l2.653 4.896s9.735-14.763 23.28-10.995c0 0 5.058 23.444-22.674 38.864a25.355 25.355 0 0 1-9.379-13.712Z" fill="#d9d9d9"/></g><path d="M504.774 435.724s8.001 15.288-9.708 34.353-37.238 16.986-37.238 16.986 10.726 8.223 17.809 11.277 38.159-14.674 46.004-36.938c0 0-2.471-8.688-5.791-12.744s-11.076-12.934-11.076-12.934z" fill="url(#k)"/><path d="M401.07 491.702s-11.024 16.38-26.575 26.709a45.43 45.43 0 0 1-31.574 7.091s7.434 9.917 15.467 14.714c0 0 20.018-4.214 29.455-12.214s14.419-20.669 14.419-20.669l-1.192-15.631z" fill="url(#l)"/><path d="M423.203 286.521s-22.239 41.452 21.737 70.702a43.863 43.863 0 0 1-15.948-2.323c-12.035-3.816-48.636-49.689-19.203-70.634l13.41 2.255Z" fill="url(#m)"/><path d="m401.449 464.549.499-.567c-.299-.262-29.79-26.61-42.019-49.246-10.59-19.64-12.88-30.851-16.045-46.381-1.19-5.875-2.546-12.527-4.541-20.386a357.29 357.29 0 0 1-9.075-51.439l-.758.108a360.405 360.405 0 0 0 9.106 51.558c1.978 7.833 3.334 14.486 4.536 20.345 3.174 15.598 5.466 26.823 16.116 46.592 12.292 22.697 41.81 49.137 42.181 49.416Z" fill="#53345f"/><g fill-rule="evenodd"><path d="m405.296 540.171 1.278-.719c-3.038-17.949-7.926-52.774-4.918-75.195l15.383-4.205 49.567 33.164c9.709 7.18 36.444 16.104 49.59 16.078a8.31 8.31 0 0 0 .96-.039l14.492-15.477-5.949-19.993-1.58-.178s-13.97 22.675-34.018 24.34-60.246-39.89-61.025-48.514c-2.894-32.238 12.803-58.786 21.858-71.148l-12.467-13.013a113.246 113.246 0 0 1-10.708-10.723c11.197 3.548 22.24 3.861 31.8-.735 21.312-10.275 28.192-30.097 29.776-35.868-1.892 6.132-10.799 28.794-43.617 35.77a35.996 35.996 0 0 1-20.04-1.605c-28.499-10.164-49.88-50.961-52.509-59.985a20.726 20.726 0 0 1-.783-4.167c-.617-8.067 4.542-11.682 4.542-11.682a16.957 16.957 0 0 1-2.62-1.064 26.85 26.85 0 0 0-9.502-2.891l-2.392 1.139.728 3.485a211.801 211.801 0 0 0 12.584 38.992 118.207 118.207 0 0 0 16.398 27.525c22.434 27.084 29.027 31.16 29.027 31.16s-6.53 51.343-18.21 65.525-51.902.448-62.765-7.77l-10.91-8.252a175.598 175.598 0 0 0 3.526 10.29l.905 11.077c10.893 8.71 47.9 39.016 56.04 52.283 9.554 15.633 15.55 42.395 15.55 42.395z" fill="url(#n)" style="mix-blend-mode:multiply"/><path d="M364.796 272.297s-2.706 29.622-26.602 50.598-39.055-26.65-39.055-26.65l7.287-3.79 3.935-2.13 54.435-18.028z" fill="#53345f" opacity=".5" style="mix-blend-mode:multiply"/><path d="m224.484 267.93.715.864c3.301 3.824 9.015 7.734 16.243 11.127 0 0 .431.215 1.249.54a115.982 115.982 0 0 0 50.268 9.65c30.015-1.145 72.936-11.705 97.388-36.457s25.037-84.954 14.161-102.125a171.567 171.567 0 0 0-12.274-17.208c-14.4-17.707-37.886-38.377-71.769-40.287-25.608-1.453-58.176 7.393-82.07 19.22a119.424 119.424 0 0 0-19.33 11.706 53.63 53.63 0 0 0-8.823 8.244l-.908 1.191a20.67 20.67 0 0 0-1.639 2.454c-25.188 44.21.734 110.36 16.789 131.08z" fill="url(#o)"/></g><path d="m227.891 262.949.665.803c7.407 5.436 32.109 18.815 68.07 4.604 44.222-17.464 44.36-57.816 44.36-57.816l8.72-2.835a177.769 177.769 0 0 1-2.273-16.057c-2.641-27.623 3-41.972 2.135-45.837-1.012-4.61-15.841-29.24-50.716-35.14-23.11-3.89-43.656 1.38-57.918 7.26a110.738 110.738 0 0 0-18.122 10.99 48.861 48.861 0 0 0-8.275 7.728l-.85 1.114a18.138 18.138 0 0 0-1.535 2.314c-9.816 17.216-11.351 37.95-8.734 57.712 3.679 27.835 15.659 53.79 24.473 65.17z" fill="url(#p)"/><g fill-rule="evenodd"><path d="M242.692 280.461a115.98 115.98 0 0 0 50.267 9.65c30.015-1.145 72.937-11.705 97.388-36.457s25.037-84.954 14.162-102.125a171.567 171.567 0 0 0-12.274-17.208c-4.606-3.294-9.804-4.821-15.634-2.727-21.388 7.692-14.774 80.246-14.774 80.246l-10.903.963s.227 42.246-40.997 63.439c-36.011 18.537-61.486 6.524-67.235 4.219z" fill="url(#q)" style="mix-blend-mode:multiply"/><path d="M400.449 238.95c-9.05 11.119-28.873 10.476-37.222-25.791s6.3-75.402 6.3-75.402c-29.836 8.362-15.17 71.318-15.17 71.318 1.032 2.613 2.022 5.026 3.045 7.282l.104.247c21.387 47.861 41.244 24.477 42.943 22.346z" fill="url(#r)"/><path d="M406.915 156.542c-5.215-11.984-14.427-19.166-21.543-17.772s-20.877 36.554-10.765 72.116 31.197 20.076 33.528 5.547l1.471-7.935s-13.778 25.78-26.579 5.142c-14.617-23.526.831-59.243 12.34-56.705s15.663 22.923 15.663 22.923-.643-15.363-4.115-23.316z" fill="#53345f"/><path d="m413.506 554.504-3.362-4.257-1.943-12.654s-24.366 16.392-43.555 17.205a51.15 51.15 0 0 0 26.107 7.991s-13.755 9.371-10.475 25.133l33.228-33.418zm82.881-45.165 26.588 3.301 2.58 4.781s17.714 14.3 39.77 10.35c0 0-6.502-18.05-29.183-23.97l-7.347-26.554a46.208 46.208 0 0 1-9.381 21.46c-7.814 9.814-21.792 10.59-23.027 10.643z" fill="#d9d9d9"/><path d="m413.506 554.504 2.935 1.82-34.348 33.798-1.862-2.234 33.275-33.384Z" fill="#cab3da"/><path d="M364.587 554.765a51.143 51.143 0 0 0 26.106 7.991s15.53-7.262 22.813-8.252l-3.362-4.257-1.943-12.654s-24.422 16.387-43.614 17.172Z" fill="url(#s)" style="mix-blend-mode:multiply"/><path d="m496.388 509.339 26.587 3.301a33.637 33.637 0 0 0 13.167-8.846l-7.347-26.557a46.216 46.216 0 0 1-9.38 21.46c-7.815 9.813-21.793 10.59-23.027 10.642Z" fill="url(#t)" style="mix-blend-mode:multiply"/></g><path d="M333.909 147.973s-1.91-10.769-3.558-13.833a46.215 46.215 0 0 0-16.976-5.876l-3.249 20.136s18.477-1.166 23.783-.427Z" fill="#fff"/><path d="m227.967 263.587.666.802c7.393 5.439 32.064 18.794 67.987 4.603 44.167-17.457 44.259-57.747 44.259-57.747l8.692-2.831a188.204 188.204 0 0 1-2.271-16.043s-86.1-61.195-143.776 6.068c3.668 27.863 15.632 53.793 24.443 65.158z" fill="url(#u)"/><path d="M334.393 219.035s-.851 9.586-4.171 15.768l-5.824-2.156s2.736-8.942 3.71-14.241l6.285.629Z" fill="#fff"/><g fill-rule="evenodd"><path d="M508.768 286.137s-7.558 11.143-16.782 12.945-12.976-7.449-12.976-7.449.055 7.995 9.56 15.384c0 0 15.757-8.385 20.198-20.88z" fill="url(#v)" style="mix-blend-mode:multiply"/><path d="M198.081 339.527a50.224 50.224 0 0 0 11.2 3.479 26.928 26.928 0 0 0 1.9-17.82l-2.49-3.856s1.82 9.94-10.6 18.197z" fill="url(#w)" style="mix-blend-mode:multiply"/><path d="M347.918 335.151a14.844 14.844 0 0 0 8.837 7.19 14.86 14.86 0 0 0 11.33-1.187 14.823 14.823 0 0 0 7.196-8.835 14.826 14.826 0 0 0-1.192-11.332 14.856 14.856 0 0 0-20.167-6.004 14.844 14.844 0 0 0-7.19 8.837 14.86 14.86 0 0 0 1.186 11.331z" fill="#684d73"/><path d="M352.777 332.531a9.315 9.315 0 0 0 17.114-1.809 9.305 9.305 0 0 0-.75-7.089 9.32 9.32 0 0 0-12.63-3.731 9.317 9.317 0 0 0-3.73 12.629Z" fill="url(#x)"/><path d="M403.726 283.248s-11.54 17.419-24.238-6.104l24.238 6.104z" fill="#684d73"/></g><path d="M371.19 487.074a221.269 221.269 0 0 0 29.709-6.524l-.227-.727c-.489.152-48.9 14.635-65.206 3.546l-.422.625c7.857 5.401 22.619 4.994 36.146 3.08zm66.32-12.245.757-.107a87.45 87.45 0 0 1-1.301-26.929c2.563-22.937 27.811-54.439 28.057-54.75l-.593-.482c-.245.311-25.635 31.985-28.221 55.146a88.573 88.573 0 0 0 1.301 27.122zm40.295-135.27.596-.471c-31.844-40.53-13.037-58.273-12.853-58.437l-.494-.565c-.209.18-5.045 4.619-5.907 14.22-.85 8.814 1.814 23.835 18.658 45.253zM241.459 369.91c14.534-29.116-17.596-57.146-17.911-57.418l-.499.567c.316.286 32.006 27.937 17.74 56.504l.67.347z" fill="#53345f"/><path d="M378.113 368.808a39.61 39.61 0 0 0 6.057 8.084l5.838-3.986a17.762 17.762 0 0 0-7.38-7.097l-4.515 2.999zm74.419-81.554a15.42 15.42 0 0 1-7.161 1.468l-2.145 3.561s5.751 2.318 9.098-1.137l.208-3.892zm39.109 153.944a21.17 21.17 0 0 1 7.18 7.153l-3.72 4.404-6.49-7.36 3.039-4.197zM213.43 311.042a12.103 12.103 0 0 1 5.964 4.51l4.877.234a18.78 18.78 0 0 0-3.428-2.964c-1.957-1.255-7.413-1.78-7.413-1.78zM343.92 496.84s-1.045 12.112.992 17.536l-5.034.602a36.005 36.005 0 0 1-1.682-16.955l5.724-1.183zm-26.94-389.548s-29.57-6.33-47.441-3.137c0 0 62.32-17.487 47.44 3.137zm45.737 57.577-11.044-1.307-.9 11.967 10.521.334 1.422-11.004z" fill="#fff"/><g clip-path="url(#y)"><path d="m624.797 111.23 39.763 19.951 7.303-16.95-37.406-20.562s-7.932 12.328-9.66 17.561Z" fill="url(#z)" style="mix-blend-mode:screen"/><g fill-rule="evenodd"><path d="m618.133 76.416 2.417-7.447s13.053 5.625 22.592 21.276l-.346.642-18.393-10.566-.775 1.332-5.495-5.237Z" fill="url(#A)"/><path d="m601.491 107.401-5.022 6.281s11.883 7.797 30.199 7.147l.346-.65-18.94-9.521.686-1.379-7.27-1.887Z" fill="url(#B)"/><path d="M537.364 52.94c-4.727 8.78 8.782 33.786 28.847 43.157s53.515 15.691 53.515 15.691l6.166-11.188 5.945-11.305s-23.71-24.448-42.562-36.037-47.216-9.038-51.91-.317z" fill="url(#C)"/><path d="M619.73 111.794s5.762-13.41 12.111-22.494c0 0-5.532 13.227-12.111 22.494Z" fill="#31165f"/><path d="M539.821 69.478s2.798-14.532 14.082-23.725c0 0-13.053.849-16.539 7.188-3.137 5.703 2.457 16.537 2.457 16.537Z" fill="url(#D)"/></g><g fill="#53345f"><path d="M554.014 45.893c-10.602 8.467-13.977 23.456-14.018 23.62l-.347-.073c.03-.152 3.44-15.28 14.147-23.825l.218.278Z"/><path d="m536.459 56.266 3.868-6.399s-4.145 2.066-3.868 6.4Z" fill-rule="evenodd"/></g><path d="M536.641 55.183a15.95 15.95 0 0 1 1.896-3.75s-3.481-.941-4.196.128 2.3 3.622 2.3 3.622z" fill="url(#E)" fill-rule="evenodd"/><path d="M598.036 106.824s4.065-22.287 16.125-34.329c7.12 6.246 17.678 16.808 17.678 16.808s-5.823 7.953-12.11 22.493c.002-.002-11.263-1.562-21.693-4.972Z" fill="url(#F)" fill-rule="evenodd" opacity=".5" style="mix-blend-mode:multiply"/><path d="M551.035 61.249c-3.65 8.24 2.641 18.918 10.588 23.663s16.975-.104 21.073-8.257 2.226-17.755-7.192-21.623c-8.506-3.508-20.413-2.942-24.47 6.217z" fill="url(#G)" fill-rule="evenodd" opacity=".5" style="mix-blend-mode:multiply"/><path d="M549.738 60.55c-3.65 8.242 2.641 18.918 10.587 23.663s16.976-.104 21.077-8.255 2.225-17.755-7.195-21.624c-8.503-3.507-20.41-2.94-24.469 6.217z" fill="#31165f" fill-rule="evenodd"/><path d="M548.834 60.064c-3.65 8.24 2.641 18.917 10.587 23.662s16.98-.104 21.08-8.255 2.23-17.755-7.19-21.624c-8.502-3.507-20.41-2.94-24.47 6.217z" fill="url(#H)" fill-rule="evenodd"/><path d="M552.022 61.102c-3.393 7.33 2.023 14.839 8.236 18.552s13.27-.12 16.492-6.525 1.774-13.923-5.574-16.95c-6.664-2.746-15.623-2.74-19.154 4.923z" fill="#a6345f" fill-rule="evenodd"/><path d="M578.027 65.248a13.376 13.376 0 0 1-1.427 7.822c-3.066 6.095-10.463 10.077-16.367 6.548a18.73 18.73 0 0 1-5.235-4.64c-2.83-3.675-4.094-8.44-1.925-13.35 3.183-7.267 11.901-7.293 18.227-4.69 4.06 1.694 6.221 4.815 6.727 8.31Z" fill="url(#I)" fill-rule="evenodd"/><g fill="#53345f"><path d="m581.415 75.94-.085.158 22.612 12.174.085-.158-22.612-12.174Z"/><path d="m598.111 106.835-.174-.036c5.472-25.057 16.046-34.28 16.15-34.37l.116.136c-.096.098-10.621 9.288-16.092 34.27zm-8.446-2.349-.177.017c-.01-.09-.7-9.125 5.075-21.375l.155.084c-5.765 12.197-5.06 21.186-5.053 21.274z"/></g><g fill-rule="evenodd"><path d="m621.659 94.334-9.928-4.937.778-3.062 10.289 5.882-1.139 2.117Z" fill="#31165f"/><path d="M620.929 110.041s4.33-10.27 10.327-19.39l4.053 2.944-10.293 17.968-4.087-1.522Z" fill="url(#J)"/><path d="M622.997 110.804a19.392 19.392 0 0 1 2.464-8.591c2.452-4.337 8.914-9.306 8.914-9.306l-3.119-2.256s-6.625 9.894-10.327 19.39l2.068.763Z" fill="#31165f" opacity=".5"/></g><path d="M558.091 58.731a18.683 18.683 0 0 1 6.03-.814l-.052-1.996s-3.419-.331-5.58 1.326l-.398 1.484zm5.314 19.763 2.874-.078.056 1.656-2.322-.08-.608-1.498z" fill="#fff"/><g fill-rule="evenodd"><path d="M542.403 74.148s.35-15.849 15.394-28.653l-3.894.258s-9.37 7.02-14.082 23.725l2.582 4.67Z" fill="url(#K)" opacity=".5" style="mix-blend-mode:multiply"/><path d="M595.797 84.533a.78.78 0 0 1 .382.473.793.793 0 0 1-.066.605.794.794 0 0 1-1.074.329.796.796 0 0 1-.32-1.078.79.79 0 0 1 .77-.419c.105.01.206.04.298.09Z" fill="url(#L)"/><path d="M595.721 84.674a.643.643 0 0 1-.608 1.13.643.643 0 0 1 .608-1.13Z" fill="url(#M)"/><path d="M592.364 82.684a.798.798 0 0 1-.162 1.463.8.8 0 0 1-.606-.057.796.796 0 0 1-.307-1.074.777.777 0 0 1 .468-.39.794.794 0 0 1 .607.058Z" fill="url(#N)"/><path d="M592.288 82.825a.64.64 0 0 1-.609 1.13.624.624 0 0 1-.241-.858.625.625 0 0 1 .85-.272Z" fill="url(#O)"/></g><path d="M563.052 82.758a.795.795 0 0 0-.316-1.078.794.794 0 1 0-.758 1.407.794.794 0 0 0 1.074-.33z" fill="#31165f"/><g fill-rule="evenodd"><path d="M562.658 81.817a.643.643 0 0 1-.608 1.13.642.642 0 0 1-.242-.86.638.638 0 0 1 .368-.314.621.621 0 0 1 .482.044Z" fill="url(#P)"/><path d="M553.552 75.143a.794.794 0 0 1 .317 1.078.808.808 0 0 1-.469.389.798.798 0 0 1-.921-1.137.795.795 0 0 1 1.073-.33z" fill="#31165f"/><path d="M553.472 75.293a.641.641 0 0 1-.609 1.13.641.641 0 0 1 .609-1.13Z" fill="url(#Q)"/><path d="M574.056 79.278a.794.794 0 0 1 .316 1.078.797.797 0 0 1-1.074.33.795.795 0 0 1-.316-1.078.8.8 0 0 1 .468-.388.794.794 0 0 1 .606.058Z" fill="#31165f"/><path d="M573.975 79.428a.643.643 0 0 1-.608 1.13.643.643 0 0 1 .608-1.13Z" fill="url(#R)"/><path d="M580.762 68.827a.798.798 0 0 1-.152 1.465.8.8 0 0 1-.606-.058.795.795 0 0 1-.316-1.078.79.79 0 0 1 .777-.42c.104.01.205.04.297.09Z" fill="#31165f"/><path d="M580.681 68.977a.64.64 0 0 1-.609 1.13.624.624 0 0 1-.241-.859.638.638 0 0 1 .368-.315.623.623 0 0 1 .48.044Z" fill="url(#S)"/></g><path d="M578.561 59.029a.794.794 0 0 0-.316-1.078.794.794 0 1 0-.758 1.407.794.794 0 0 0 1.074-.329z" fill="#31165f"/><g fill-rule="evenodd"><path d="M578.168 58.092a.643.643 0 0 1-.608 1.13.64.64 0 0 1 .608-1.13Z" fill="url(#T)"/><path d="M565.307 52.444a.798.798 0 0 1 .382.473.786.786 0 0 1-.065.605.797.797 0 0 1-1.074.329.796.796 0 0 1-.318-1.075.79.79 0 0 1 1.075-.332Z" fill="#31165f"/><path d="M565.231 52.585a.643.643 0 0 1-.608 1.13.643.643 0 0 1 .608-1.13Z" fill="url(#U)"/><path d="M555.963 54.568a.805.805 0 0 1 .382.473.806.806 0 0 1-.535.99.796.796 0 0 1-.605-.056.794.794 0 0 1-.316-1.078.785.785 0 0 1 .777-.42.8.8 0 0 1 .297.09Z" fill="#31165f"/><path d="M555.882 54.717a.643.643 0 0 1-.608 1.13.643.643 0 0 1 .608-1.13Z" fill="url(#V)"/><path d="M549.94 63.371a.797.797 0 1 1-.758 1.407.794.794 0 0 1-.411-.782.799.799 0 0 1 1.17-.624z" fill="#31165f"/><path d="M549.859 63.521a.63.63 0 0 1 .302.379.61.61 0 0 1-.06.48.62.62 0 0 1-.85.271.643.643 0 0 1 .608-1.13Z" fill="url(#W)"/><path d="m627.007 120.198.279-.517-18.966-9.544-.257.525 18.944 9.536Zm-2.602-39.888-.297.504 18.498 10.412.189-.35-18.39-10.565Z" fill="#6f2561"/><path d="m608.251 84.772.998-1.854 28.331 17.644-.695 1.292-28.634-17.082Z" fill="url(#X)"/><path d="m608.251 84.772 5.796 4.785 22.838 12.297-28.634-17.082Z" fill="#ff4c61"/><path d="m610.12 83.46 21.721 5.84-2.656 4.351 4.626 2.564-.795 1.498-22.89-14.253Z" fill="#31165f" opacity=".5"/></g><g fill="#fff"><path d="M547.243 78.576s-2.117-.902-2.663-2.866l.618-1.027a38.657 38.657 0 0 1 2.331 3.362l-.286.53Z"/><path d="m609.205 69.838-7.679-6.635.29-.54 7.733 6.537-.344.638Z" style="mix-blend-mode:soft-light"/></g><g fill-rule="evenodd"><path d="M571.382 46.577s1.094-3.636 3.606.796l-3.606-.796Z" fill="url(#Y)"/><path d="M550.412 84.482s-.745 3.517 2.528 2.495l-2.528-2.495Z" fill="url(#Z)"/><g fill="#fff"><path d="M621.121 108.446s-30.394-5.459-51.464-12.535l-.041 1.043s31.745 11.966 50.317 14.37l1.188-2.878Z" opacity=".5" style="mix-blend-mode:soft-light"/><path d="m599.705 61.84-4.853-3.87.277-.515 4.853 3.87-.277.515zm-9.636 38.81s.54-6.938 2.91-12.55c0 0-1.69 5.951-2.92 12.55zm-6.46-23.759 19.89 10.538s-6.999-4.219-19.894-10.538zm15.781 25.437s3.312-15.44 12.686-26.9c.013.007-7.404 8.239-12.687 26.9z" style="mix-blend-mode:soft-light"/><path d="M548.96 71.325s1.703-1.43-1.08-4.303a18.202 18.202 0 0 0 1.08 4.303Z"/><path d="M581.257 73.825s2.126-4.49.227-12.183c-.014-.008 2.586 5.394-.227 12.182zm-4.688-.392s4.08-2.724 1.763-7.336c.008.004.706 2.994-1.763 7.336z" style="mix-blend-mode:soft-light"/></g></g><path d="M584.657 78.746c.031.308.009.858.39.968.179.03.359.05.54.061a2.33 2.33 0 0 1 .461.139c.244.101.511.13.771.084.167-.046.116-.215.042-.342a.898.898 0 0 0-.287-.367 2.929 2.929 0 0 1-.501-.35c-.059-.06-.092-.14-.156-.2a1.45 1.45 0 0 0-.283-.158.843.843 0 0 0-.977.155zm2.342 2.449a.24.24 0 0 1-.205-.176c.183-.34.914-.098.87.286-.048.448-.569.226-.726-.004l.061-.106zm.875 8.501c.01-.22-.027-.43.123-.6a.875.875 0 0 1 .478-.272c.227-.035.46-.02.681.042.111.004.218.04.308.104.337.316.366.926.289 1.34a3.188 3.188 0 0 1-.177.707c-.08.15-.127.318-.181.479a1.019 1.019 0 0 1-.158.388 1.185 1.185 0 0 1-.313.196 1.006 1.006 0 0 1-.942-.018c-.501-.296-.577-1.135-.56-1.669.018-.431.101-1.094.452-.697zm.178-1.996c.119.126.141.192.298.124a.408.408 0 0 0 .184-.288c.038-.212-.11-.587-.362-.559-.127.02-.38.09-.467.19a.601.601 0 0 0 .234.738l.11-.205zm8.647-4.078a.762.762 0 0 0 .22.155l.59.32 1.1.666a5.65 5.65 0 0 0 .854.349l.46.142c.015-.032-.058-.078-.08-.11-.08-.104-.18-.194-.25-.301a11.822 11.822 0 0 0-.499-.727.696.696 0 0 1-.102-.128c-.028-.063-.044-.141-.068-.205a1.194 1.194 0 0 0-.184-.336 2.01 2.01 0 0 0-.722-.501c-.087-.047-.183-.066-.269-.11a2.576 2.576 0 0 0-.292-.134 1.732 1.732 0 0 0-.67-.07c-.26.01-.679-.044-.875.185-.096.11.017.232.108.307s.245.16.364.25l.304.248zm-1.62-1.222c-.07-.107-.22-.285-.09-.41s.301-.02.41.052c.233.18-.208.376-.377.256l.047.102zm3.01-1.692a.54.54 0 0 0 .265.235.32.32 0 0 0 .401-.19c.13-.24.168-.433-.038-.606a.712.712 0 0 0-.582-.077.384.384 0 0 0-.186.156c-.078.147-.014.272.064.398l.075.084zm10.38-1.395c.013-.456.082-.908.203-1.348.145-.37.31-.732.494-1.083a11.76 11.76 0 0 0 .438-1.587c.098-.472.31-.914.62-1.285a1.454 1.454 0 0 1 1.025-.504 2.14 2.14 0 0 1 .694.147c.1.053.2.082.3.121a.918.918 0 0 1 .189.065c.093.05.072.09.024.177a.844.844 0 0 1-.343.38 2.6 2.6 0 0 0-.648.628l-.54.683-.498.702-.444.595c-.146.203-.263.413-.392.62s-.192.356-.288.534c-.061.113-.138.21-.2.323-.046.087-.1.17-.16.25a2.946 2.946 0 0 0-.135.25 2.156 2.156 0 0 1-.34.332zm-.314-3.135c.016.078.016.173.076.223a.425.425 0 0 0 .11.06c.178.048.331-.216.401-.346a1.71 1.71 0 0 0 .196-1.236.964.964 0 0 0-.544-.657c-.372-.109-.753.153-.99.425s-.457.659-.353 1.006a.566.566 0 0 0 .196.31c.091.044.183.082.278.114.12.064.187.18.337.181a.485.485 0 0 0 .291-.08zm1.192-2.154a.184.184 0 0 1-.104-.046.18.18 0 0 1-.058-.1.196.196 0 0 1 .027-.24.276.276 0 0 1 .206-.089.27.27 0 0 1 .202.097.327.327 0 0 1 .044.153.31.31 0 0 1-.034.155.252.252 0 0 1-.285.138l.003-.068zm-6.258-6.967a.539.539 0 0 0 .07.402.196.196 0 0 0 .171.125c.256-.002.501-.096.693-.264a.633.633 0 0 0 .201-.454 1.47 1.47 0 0 0-.13-.434 2.72 2.72 0 0 0-.169-.365.516.516 0 0 0-.48-.372.73.73 0 0 0-.57.38c-.063.15-.089.31-.076.472.012.17-.007.313.291.51zm.41 1.164a.961.961 0 0 1 .25-.265c.049.026.106-.02.15.033s-.031.195-.067.255a.37.37 0 0 1-.211.168c-.033.007-.172.05-.143-.026l.02-.165zm.998 13.146c.085.133.18.283.381.234a.463.463 0 0 0 .278-.437c.01-.09.016-.192-.06-.247s-.172-.093-.257-.138c-.2-.108-.232-.395-.523-.315a.496.496 0 0 0-.309.282c-.07.228.085.447.22.61l.27.011zm-1.42 20.394a1.43 1.43 0 0 0 0 .784l.088.048a.642.642 0 0 0 .471.252c.583.005.79-.504 1.021-.944s.625-1.038-.134-1.166c-.336-.053-.898-.18-1.23-.005-.176.093-.17.193-.193.361a1.851 1.851 0 0 0-.04.707l.018-.037zm3.611-4.98c-.085-.13-.272-.365-.193-.56s.18-.163.313-.23c.294-.147.637-.255.81.141a.73.73 0 0 1-.094.635c-.112.14-.44.302-.593.154l-.244-.13zM578.3 52.604c.26.362.273.387.683.48.306.108.634.139.955.089.434-.13.55-.524.806-.823a.748.748 0 0 0 .247-.702 2.806 2.806 0 0 0-.37-.95 3.716 3.716 0 0 0-2.736-1.56c-.663-.047-1.47-.02-1.97.504a1.686 1.686 0 0 0-.43 1.667 1.883 1.883 0 0 0 1.294 1.15l.417.092a2.75 2.75 0 0 1 .471.254c.18.065.382.05.632-.2zm.84 1.71c.468-.19.376-.163.75-.038.162.057.227.012.35.122a.587.587 0 0 1 .07.654c-.078.143-.48.214-.619.212a.433.433 0 0 1-.404-.249l-.142-.703zm-18.49 34.15c.246.223.549.513.934.298.256-.15.304-.565.26-.84a2.28 2.28 0 0 0-.754-1.207c-.345-.252-.984-.013-1.212.31-.464.657.435 1.622.923 1.954l-.15-.513zm2.95 2.215c-.104-.005-.432.036-.52-.047-.048-.026-.018-.1-.046-.145a.623.623 0 0 1-.094-.502.823.823 0 0 1 .798-.6.489.489 0 0 1 .538.356.645.645 0 0 1-.386.77l-.29.167zm54-11.06c.388.475.92.81 1.517.953.38.116.854.31 1.206.022.823-.676-.66-2.335-1.162-2.813a4.294 4.294 0 0 0-1.517-.944c-.34-.11-1.083-.197-1.405.023-.415.284-.412.872-.228 1.263.402.945 1.396 1.28 2.06 1.97l-.47-.473zm-.362.382a2.55 2.55 0 0 0-.199.693c.01.13.02.333.13.434a.53.53 0 0 0 .51.038.385.385 0 0 0 .26-.256c.012-.096-.063-.22-.103-.303a2.157 2.157 0 0 0-.277-.426 1.01 1.01 0 0 0-.15-.19c-.1-.082-.183-.027-.286-.046l.114.057zm4.232 2.909.288-.21c.102.078.255.108.27.255a.64.64 0 0 1-.176.38.32.32 0 0 1-.392.051c-.153-.082-.137-.26-.088-.41l.098-.069zm-1.197 16.745a.348.348 0 0 0 .39.14.502.502 0 0 0 .38-.56c-.058-.36-.347-.88-.726-.989-.236-.07-.635.077-.625.363 0 .16.018.32.056.478.097.23.268.423.486.546l.04.02zM555.186 50.73c.04.15.042.22.156.314a.64.64 0 0 0 .444.184 1.73 1.73 0 0 0 .983-.615.931.931 0 0 0 .252-.786 1.155 1.155 0 0 0-.468-.843.79.79 0 0 0-.916-.106 2.465 2.465 0 0 0-.81.603.809.809 0 0 0-.145.73c.05.25.19.617.504.52zm2.228-1.734c-.085-.046-.184-.1-.162-.193a.63.63 0 0 1 .383-.326.542.542 0 0 1 .383.053.371.371 0 0 1 .106.243.324.324 0 0 1-.152.344c-.084.047-.273.175-.362.09l-.196-.21zM543.04 50.21a.602.602 0 0 0 .402.113c.26-.019.514-.097.739-.229.307-.154.556-.404.71-.71a.661.661 0 0 0-.21-.69 1.314 1.314 0 0 0-.869-.218 1.747 1.747 0 0 0-1.313.922c-.248.577.558 1.037.552.81zm3.214-1.358a.488.488 0 0 1-.265.018c.007-.102-.067-.175-.053-.28a.416.416 0 0 1 .178-.25.385.385 0 0 1 .386-.04c.14.075.147.14.144.288s.007.135-.105.195c-.068.043-.14.079-.215.107l-.07-.038z" fill="#fff" fill-rule="evenodd" opacity=".36" style="mix-blend-mode:soft-light"/><g fill-rule="evenodd"><path d="M599.482 100.855c.443.239.664.697.489 1.022s-.678.393-1.122.154-.661-.684-.486-1.009.675-.395 1.119-.157z" fill="url(#aa)"/><path d="M599.415 100.98c.351.188.522.547.384.804s-.532.311-.883.123-.522-.547-.383-.805.535-.309.882-.122z" fill="#fff"/><path d="M610.455 76.46a.835.835 0 0 1 .453 1.082.838.838 0 0 1-1.153.218.84.84 0 0 1-.455-1.084.841.841 0 0 1 1.155-.216Z" fill="url(#ab)"/><path d="M610.38 76.598a.66.66 0 0 1 .358.852.662.662 0 0 1-.908.171.663.663 0 0 1-.358-.852.662.662 0 0 1 .908-.17Z" fill="#fff"/></g><path d="M604.787 88.626a.92.92 0 0 0-.367-1.248.92.92 0 1 0-.876 1.628.92.92 0 0 0 1.243-.38z" fill="url(#ac)"/><path d="M604.327 87.55a.727.727 0 1 1-.691 1.283.725.725 0 1 1 .691-1.282z" fill="#fff" fill-rule="evenodd"/><path d="M604.807 82.611a5.288 5.288 0 0 1 4.594 5.962 5.397 5.397 0 0 1-5.966 4.683 5.29 5.29 0 0 1-4.462-3.887 5.283 5.283 0 0 1-.132-2.075 5.393 5.393 0 0 1 5.966-4.683Z" fill="url(#ad)" style="mix-blend-mode:screen"/><path d="M573.391 42.169a4.223 4.223 0 0 1 3.668 4.756 4.307 4.307 0 0 1-4.764 3.737 4.226 4.226 0 0 1-3.667-4.759 4.312 4.312 0 0 1 4.763-3.734Z" fill="url(#ae)" style="mix-blend-mode:screen"/><path d="M537.221 48.698a4.225 4.225 0 0 1 3.668 4.756 4.3 4.3 0 0 1-4.764 3.737 4.23 4.23 0 0 1-2.827-1.612 4.218 4.218 0 0 1-.841-3.144 4.308 4.308 0 0 1 4.764-3.737Z" fill="url(#af)" style="mix-blend-mode:screen"/><path d="M551.478 83.776a2.188 2.188 0 0 1 1.461.833 2.192 2.192 0 0 1 .435 1.624 2.229 2.229 0 0 1-2.462 1.933 2.175 2.175 0 0 1-1.461-.834 2.197 2.197 0 0 1-.434-1.626 2.228 2.228 0 0 1 2.46-1.93Z" fill="url(#ag)" style="mix-blend-mode:screen"/><path d="M610.17 75.439a2.048 2.048 0 0 1 1.731 1.498c.07.261.088.534.052.803a2.076 2.076 0 0 1-2.302 1.804 2.032 2.032 0 0 1-1.365-.778 2.038 2.038 0 0 1-.406-1.517 2.076 2.076 0 0 1 2.29-1.821Z" fill="url(#ah)" style="mix-blend-mode:screen"/><path d="M599.228 99.77a2.038 2.038 0 0 1 1.77 2.299 2.083 2.083 0 0 1-2.3 1.805 2.059 2.059 0 0 1-.761-.252 2.051 2.051 0 0 1-.96-1.246 2.041 2.041 0 0 1-.051-.8 2.08 2.08 0 0 1 2.302-1.805Z" fill="url(#ai)" style="mix-blend-mode:screen"/></g><defs><radialGradient xlink:href="#aj" id="G" cx="0" cy="0" r="1" gradientTransform="matrix(8.15331 -15.14361 14.99516 8.07339 567.39 69.577)"><stop offset=".02" stop-color="#8881bc"/><stop offset=".29" stop-color="#8375b7"/><stop offset=".77" stop-color="#7555aa"/><stop offset=".99" stop-color="#6d43a3"/></radialGradient><radialGradient xlink:href="#aj" id="b" cx="0" cy="0" r="1" gradientTransform="matrix(276.007 0 0 275.972 276.007 275.972)"><stop offset=".81" stop-color="#008bc4"/><stop offset=".979" stop-opacity="0"/></radialGradient><radialGradient xlink:href="#aj" id="d" cx="0" cy="0" r="1" gradientTransform="matrix(106.48696 -68.17146 32.72062 51.11111 425.22 481.752)"><stop stop-color="#2c6aff"/><stop offset="1" stop-opacity="0"/></radialGradient><radialGradient xlink:href="#aj" id="e" cx="0" cy="0" r="1" gradientTransform="rotate(151.643 92.606 200.37) scale(52.3805)"><stop stop-color="#f4dbee"/><stop offset="1" stop-color="#d1bde5"/></radialGradient><radialGradient xlink:href="#aj" id="ai" cx="0" cy="0" r="1" gradientTransform="matrix(.26034 -2.05917 2.03356 .2571 599.009 101.965)"><stop stop-color="#003cee"/><stop offset=".06" stop-color="#0036d6"/><stop offset=".2" stop-color="#00289e"/><stop offset=".34" stop-color="#001c6d"/><stop offset=".48" stop-color="#001246"/><stop offset=".62" stop-color="#000a27"/><stop offset=".75" stop-color="#000412"/><stop offset=".88" stop-color="#000104"/><stop offset="1"/></radialGradient><radialGradient xlink:href="#aj" id="ah" cx="0" cy="0" r="1" gradientTransform="matrix(.26034 -2.05917 2.03357 .2571 609.889 77.557)"><stop stop-color="#003cee"/><stop offset=".06" stop-color="#0036d6"/><stop offset=".2" stop-color="#00289e"/><stop offset=".34" stop-color="#001c6d"/><stop offset=".48" stop-color="#001246"/><stop offset=".62" stop-color="#000a27"/><stop offset=".75" stop-color="#000412"/><stop offset=".88" stop-color="#000104"/><stop offset="1"/></radialGradient><radialGradient xlink:href="#aj" id="h" cx="0" cy="0" r="1" gradientTransform="rotate(151.643 103.921 294.374) scale(55.8371)"><stop stop-color="#f4f1ff"/><stop offset="1" stop-color="#d1bde5"/></radialGradient><radialGradient xlink:href="#aj" id="i" cx="0" cy="0" r="1" gradientTransform="rotate(151.643 176.46 205.95) scale(57.1759)"><stop stop-color="#f4dbee"/><stop offset="1" stop-color="#d1bde5"/></radialGradient><radialGradient xlink:href="#aj" id="j" cx="0" cy="0" r="1" gradientTransform="rotate(151.643 174.846 281.826) scale(67.3269)"><stop stop-color="#f4f1ff"/><stop offset="1" stop-color="#d1bde5"/></radialGradient><radialGradient xlink:href="#aj" id="ag" cx="0" cy="0" r="1" gradientTransform="matrix(.27846 -2.2025 2.17512 .275 551.257 86.054)"><stop stop-color="#ff9a00"/><stop offset=".09" stop-color="#d68100"/><stop offset=".23" stop-color="#9e5f00"/><stop offset=".36" stop-color="#6e4200"/><stop offset=".5" stop-color="#462a00"/><stop offset=".63" stop-color="#271800"/><stop offset=".76" stop-color="#120b00"/><stop offset=".89" stop-color="#040300"/><stop offset="1"/></radialGradient><radialGradient xlink:href="#aj" id="af" cx="0" cy="0" r="1" gradientTransform="matrix(.5388 -4.26168 4.20868 .5321 536.693 52.922)"><stop stop-color="#ff9a00"/><stop offset=".09" stop-color="#d68100"/><stop offset=".23" stop-color="#9e5f00"/><stop offset=".36" stop-color="#6e4200"/><stop offset=".5" stop-color="#462a00"/><stop offset=".63" stop-color="#271800"/><stop offset=".76" stop-color="#120b00"/><stop offset=".89" stop-color="#040300"/><stop offset="1"/></radialGradient><radialGradient xlink:href="#aj" id="ae" cx="0" cy="0" r="1" gradientTransform="matrix(.5388 -4.26168 4.20868 .5321 572.812 46.376)"><stop stop-color="#ff9a00"/><stop offset=".09" stop-color="#d68100"/><stop offset=".23" stop-color="#9e5f00"/><stop offset=".36" stop-color="#6e4200"/><stop offset=".5" stop-color="#462a00"/><stop offset=".63" stop-color="#271800"/><stop offset=".76" stop-color="#120b00"/><stop offset=".89" stop-color="#040300"/><stop offset="1"/></radialGradient><radialGradient xlink:href="#aj" id="ad" cx="0" cy="0" r="1" gradientTransform="matrix(.67531 -5.34143 5.275 .66691 604.135 88.035)"><stop stop-color="#003cee"/><stop offset=".06" stop-color="#0036d6"/><stop offset=".2" stop-color="#00289e"/><stop offset=".34" stop-color="#001c6d"/><stop offset=".48" stop-color="#001246"/><stop offset=".62" stop-color="#000a27"/><stop offset=".75" stop-color="#000412"/><stop offset=".88" stop-color="#000104"/><stop offset="1"/></radialGradient><radialGradient xlink:href="#aj" id="W" cx="0" cy="0" r="1" gradientTransform="matrix(.2995 -.55629 .55083 .29657 549.85 64.39)"><stop stop-color="#f4bab3"/><stop offset="1" stop-color="#8d6fc7"/></radialGradient><radialGradient xlink:href="#aj" id="V" cx="0" cy="0" r="1" gradientTransform="matrix(.2995 -.55629 .55083 .29657 555.886 55.58)"><stop stop-color="#f4bab3"/><stop offset="1" stop-color="#8d6fc7"/></radialGradient><radialGradient xlink:href="#aj" id="U" cx="0" cy="0" r="1" gradientTransform="matrix(.2995 -.55629 .55083 .29657 565.253 53.459)"><stop stop-color="#f4bab3"/><stop offset="1" stop-color="#8d6fc7"/></radialGradient><radialGradient xlink:href="#aj" id="T" cx="0" cy="0" r="1" gradientTransform="matrix(.2995 -.55629 .55083 .29657 578.232 58.986)"><stop stop-color="#f4bab3"/><stop offset="1" stop-color="#8d6fc7"/></radialGradient><radialGradient xlink:href="#aj" id="S" cx="0" cy="0" r="1" gradientTransform="matrix(.2995 -.55629 .55083 .29657 580.766 69.882)"><stop stop-color="#f4bab3"/><stop offset="1" stop-color="#8d6fc7"/></radialGradient><radialGradient xlink:href="#aj" id="R" cx="0" cy="0" r="1" gradientTransform="matrix(.2995 -.55629 .55083 .29657 574.047 80.344)"><stop stop-color="#f4bab3"/><stop offset="1" stop-color="#8d6fc7"/></radialGradient><radialGradient xlink:href="#aj" id="Q" cx="0" cy="0" r="1" gradientTransform="matrix(.2995 -.55629 .55083 .29657 553.483 76.188)"><stop stop-color="#f4bab3"/><stop offset="1" stop-color="#8d6fc7"/></radialGradient><radialGradient xlink:href="#aj" id="P" cx="0" cy="0" r="1" gradientTransform="matrix(.2995 -.55629 .55083 .29657 562.695 82.742)"><stop stop-color="#f4bab3"/><stop offset="1" stop-color="#8d6fc7"/></radialGradient><radialGradient xlink:href="#aj" id="O" cx="0" cy="0" r="1" gradientTransform="matrix(.2995 -.55629 .55083 .29657 592.409 83.772)"><stop offset=".02" stop-color="#8881bc"/><stop offset=".29" stop-color="#8375b7"/><stop offset=".77" stop-color="#7555aa"/><stop offset="1" stop-color="#6d43a3"/></radialGradient><radialGradient xlink:href="#aj" id="M" cx="0" cy="0" r="1" gradientTransform="matrix(.2995 -.55629 .55083 .29657 595.853 85.627)"><stop offset=".02" stop-color="#8881bc"/><stop offset=".29" stop-color="#8375b7"/><stop offset=".77" stop-color="#7555aa"/><stop offset="1" stop-color="#6d43a3"/></radialGradient><radialGradient xlink:href="#aj" id="K" cx="0" cy="0" r="1" gradientTransform="rotate(-61.702 323.375 -429.23) scale(11.7094 11.5945)"><stop offset=".02" stop-color="#8881bc"/><stop offset=".29" stop-color="#8375b7"/><stop offset=".77" stop-color="#7555aa"/><stop offset=".99" stop-color="#6d43a3"/></radialGradient><radialGradient xlink:href="#aj" id="J" cx="0" cy="0" r="1" gradientTransform="matrix(3.0121 -5.59456 10.14699 5.46313 628.83 102.43)"><stop offset=".02" stop-color="#725eb0"/><stop offset=".38" stop-color="#6d52aa"/><stop offset=".99" stop-color="#61349c"/></radialGradient><radialGradient xlink:href="#aj" id="H" cx="0" cy="0" r="1" gradientTransform="matrix(10.14374 -18.84054 31.12062 16.75532 552.714 62.489)"><stop offset=".02" stop-color="#725eb0"/><stop offset=".38" stop-color="#6d52aa"/><stop offset=".99" stop-color="#61349c"/></radialGradient><radialGradient xlink:href="#aj" id="C" cx="0" cy="0" r="1" gradientTransform="matrix(16.14782 -29.99226 54.12669 29.14178 564.324 61.573)"><stop stop-color="#f4bab3"/><stop offset=".77" stop-color="#8d6fc7"/><stop offset=".96" stop-color="#b695e5"/></radialGradient><radialGradient xlink:href="#aj" id="D" cx="0" cy="0" r="1" gradientTransform="matrix(4.34047 -8.06181 7.1924 3.87239 535.84 52.371)"><stop offset=".02" stop-color="#ab5e75"/><stop offset=".25" stop-color="#9f577b"/><stop offset=".67" stop-color="#7f458c"/><stop offset=".99" stop-color="#61349c"/></radialGradient><radialGradient xlink:href="#aj" id="c" cx="0" cy="0" r="1" gradientTransform="matrix(352.047 0 0 352.003 221.372 192.218)"><stop stop-color="#7c83ff"/><stop offset=".84" stop-color="#482088"/><stop offset=".95" stop-color="#403b77"/><stop offset="1" stop-color="#4d79d1"/></radialGradient><radialGradient xlink:href="#aj" id="F" cx="0" cy="0" r="1" gradientTransform="rotate(-61.702 379.724 -462.636) scale(16.1744 29.336)"><stop offset=".02" stop-color="#8881bc"/><stop offset=".29" stop-color="#8375b7"/><stop offset=".77" stop-color="#7555aa"/><stop offset=".99" stop-color="#6d43a3"/></radialGradient><linearGradient xlink:href="#aj" id="p" x1="362.453" x2="185.061" y1="170.661" y2="196.392"><stop stop-color="#aa367c"/><stop offset="1" stop-color="#4a2fbd"/></linearGradient><linearGradient xlink:href="#aj" id="E" x1="537.636" x2="534.338" y1="53.335" y2="51.56"><stop stop-color="#ffff18"/><stop offset="1" stop-color="#ff7400"/></linearGradient><linearGradient xlink:href="#aj" id="I" x1="576.192" x2="553.134" y1="73.875" y2="61.46"><stop stop-color="#ffff29"/><stop offset="1" stop-color="#ff7e59"/></linearGradient><linearGradient xlink:href="#aj" id="A" x1="644.653" x2="618.257" y1="87.425" y2="73.214"><stop stop-color="#a43440"/><stop offset="1" stop-color="#c73634"/></linearGradient><linearGradient xlink:href="#aj" id="z" x1="670.171" x2="630.746" y1="121.012" y2="99.786"><stop stop-opacity="0"/><stop offset="1" stop-color="#106d90"/></linearGradient><linearGradient xlink:href="#aj" id="L" x1="596.113" x2="594.723" y1="85.611" y2="84.862"><stop stop-color="#8dc7ff"/><stop offset=".32" stop-color="#5c4d86"/></linearGradient><linearGradient xlink:href="#aj" id="x" x1="371.166" x2="349.432" y1="325.643" y2="328.801"><stop stop-color="#aa367c"/><stop offset="1" stop-color="#4a2fbd"/></linearGradient><linearGradient xlink:href="#aj" id="N" x1="592.683" x2="591.29" y1="83.763" y2="83.013"><stop stop-color="#8dc7ff"/><stop offset=".32" stop-color="#5c4d86"/></linearGradient><linearGradient xlink:href="#aj" id="w" x1="213.606" x2="197.472" y1="329.625" y2="338.333"><stop stop-color="#9579a7"/><stop offset="1" stop-color="#fff"/></linearGradient><linearGradient xlink:href="#aj" id="v" x1="508.65" x2="482.104" y1="285.856" y2="300.184"><stop stop-color="#fff"/><stop offset="1" stop-color="#9579a7"/></linearGradient><linearGradient xlink:href="#aj" id="u" x1="357.554" x2="190.46" y1="202.526" y2="227.008"><stop stop-color="#5a30b2"/><stop offset="1" stop-color="#aa367c"/><stop offset="1" stop-color="#4a2fbd"/></linearGradient><linearGradient xlink:href="#aj" id="t" x1="535.63" x2="497.11" y1="489.793" y2="510.584"><stop stop-color="#fff"/><stop offset="1" stop-color="#9579a7"/></linearGradient><linearGradient xlink:href="#aj" id="s" x1="410.965" x2="370.063" y1="542.749" y2="564.825"><stop stop-color="#fff"/><stop offset="1" stop-color="#9579a7"/></linearGradient><linearGradient xlink:href="#aj" id="r" x1="398.339" x2="347.985" y1="241.982" y2="148.685"><stop stop-color="#d1bde5"/><stop offset="1" stop-color="#f4dbee"/></linearGradient><linearGradient xlink:href="#aj" id="q" x1="417.902" x2="238.643" y1="176.17" y2="272.921"><stop stop-color="#fff"/><stop offset="1" stop-color="#9579a7"/></linearGradient><linearGradient xlink:href="#aj" id="B" x1="625.15" x2="598.754" y1="123.649" y2="109.437"><stop stop-color="#a43440"/><stop offset="1" stop-color="#c73634"/></linearGradient><linearGradient xlink:href="#aj" id="o" x1="351.441" x2="256.552" y1="279.093" y2="103.285"><stop stop-color="#d1bde5"/><stop offset="1" stop-color="#fff"/></linearGradient><linearGradient xlink:href="#aj" id="X" x1="637.732" x2="608.403" y1="100.28" y2="84.489"><stop stop-color="#a43411"/><stop offset="1" stop-color="#c73634"/></linearGradient><linearGradient xlink:href="#aj" id="Y" x1="572.922" x2="573.868" y1="47.406" y2="45.648"><stop stop-color="#ffff18"/><stop offset="1" stop-color="#ff7400"/></linearGradient><linearGradient xlink:href="#aj" id="Z" x1="551.023" x2="551.913" y1="86.943" y2="85.29"><stop stop-color="#ffff18"/><stop offset="1" stop-color="#ff7400"/></linearGradient><linearGradient xlink:href="#aj" id="aa" x1="599.971" x2="598.363" y1="101.877" y2="101.011"><stop stop-color="#8dc7ff"/><stop offset=".32" stop-color="#5c4d86"/></linearGradient><linearGradient xlink:href="#aj" id="ab" x1="610.913" x2="609.306" y1="77.545" y2="76.679"><stop stop-color="#8dc7ff"/><stop offset=".32" stop-color="#5c4d86"/></linearGradient><linearGradient xlink:href="#aj" id="ac" x1="604.787" x2="603.179" y1="88.626" y2="87.76"><stop stop-color="#8dc7ff"/><stop offset=".32" stop-color="#5c4d86"/></linearGradient><linearGradient xlink:href="#aj" id="n" x1="508.892" x2="335.02" y1="353.989" y2="447.833"><stop stop-color="#fff"/><stop offset="1" stop-color="#9579a7"/></linearGradient><linearGradient xlink:href="#aj" id="m" x1="441.315" x2="395.787" y1="314.65" y2="321.181"><stop stop-color="#aa367c"/><stop offset="1" stop-color="#4a2fbd"/></linearGradient><linearGradient xlink:href="#aj" id="l" x1="407.466" x2="334.769" y1="509.787" y2="520.482"><stop stop-color="#aa367c"/><stop offset="1" stop-color="#4a2fbd"/></linearGradient><linearGradient xlink:href="#aj" id="k" x1="525.451" x2="447.527" y1="459.275" y2="470.638"><stop stop-color="#aa367c"/><stop offset="1" stop-color="#4a2fbd"/></linearGradient><linearGradient xlink:href="#aj" id="g" x1="329.052" x2="274.373" y1="316.685" y2="346.197"><stop stop-color="#9579a7"/><stop offset="1" stop-color="#fff"/></linearGradient><linearGradient xlink:href="#aj" id="f" x1="291.577" x2="250.117" y1="337.249" y2="343.2"><stop stop-color="#aa367c"/><stop offset="1" stop-color="#4a2fbd"/></linearGradient><linearGradient id="aj" gradientUnits="userSpaceOnUse"/><clipPath id="a"><path d="M0 0h552v562H0z" fill="#fff"/></clipPath><clipPath id="y"><path d="M521 73.112 545.826 27l135.54 72.974-24.827 46.112z" fill="#fff"/></clipPath></defs></svg>